<svg width="167" height="167" viewBox="0 0 167 167" fill="none" xmlns="http://www.w3.org/2000/svg">
<path d="M129.037 111.675C128.767 111.561 128.676 111.349 128.764 111.038L128.963 110.363C129.045 110.065 128.954 109.852 128.689 109.726C128.382 109.596 128.084 109.463 127.794 109.326C127.499 109.201 127.199 109.074 126.892 108.944L121.623 106.717C121.316 106.587 121.009 106.457 120.702 106.328C120.402 106.215 120.098 106.094 119.791 105.964C119.474 105.859 119.252 105.939 119.126 106.204L118.779 106.818C118.618 107.097 118.408 107.182 118.15 107.073C117.88 106.959 117.81 106.748 117.94 106.441L119.739 102.186C119.868 101.879 120.068 101.782 120.339 101.896C120.596 102.005 120.682 102.215 120.594 102.525L120.392 103.157C120.31 103.455 120.409 103.663 120.692 103.783C120.994 103.925 121.292 104.058 121.587 104.183C121.894 104.313 122.201 104.442 122.508 104.572L128.2 106.979L120.992 99.2197L121.265 98.575L131.905 98.3176L124.426 95.1559C124.143 95.0365 123.924 95.1102 123.768 95.3771L123.353 96.0488C123.197 96.3157 122.984 96.392 122.714 96.2778C122.444 96.1636 122.373 95.953 122.503 95.6459L123.866 92.4222C123.996 92.1151 124.196 92.0187 124.466 92.1329C124.736 92.2472 124.83 92.4533 124.747 92.7513L124.523 93.5902C124.44 93.8882 124.54 94.0969 124.823 94.2164L133.628 97.9388C133.923 98.0634 134.149 97.9922 134.305 97.7253L134.667 97.0749C134.823 96.808 135.036 96.7317 135.306 96.8459C135.577 96.9601 135.647 97.1707 135.517 97.4777L134.294 100.37L123.694 100.688L130.58 108.18C130.767 108.389 130.806 108.623 130.697 108.881L129.637 111.386C129.508 111.693 129.308 111.789 129.037 111.675Z" fill="white"/>
<path d="M117.082 125.464C116.349 126.063 115.584 126.455 114.788 126.64C113.982 126.833 113.184 126.857 112.393 126.71C111.611 126.575 110.859 126.276 110.138 125.815C109.416 125.372 108.772 124.805 108.207 124.113C107.65 123.431 107.227 122.692 106.938 121.895C106.649 121.098 106.512 120.298 106.527 119.494C106.542 118.69 106.725 117.913 107.075 117.161C107.416 116.419 107.947 115.752 108.67 115.162C109.259 114.681 109.921 114.322 110.655 114.083C111.399 113.855 112.169 113.777 112.968 113.848C113.766 113.919 114.556 114.16 115.339 114.571C116.122 114.981 116.864 115.615 117.564 116.473C118.12 117.154 118.543 117.893 118.832 118.69C119.13 119.497 119.271 120.303 119.256 121.107C119.231 121.919 119.043 122.701 118.692 123.452C118.342 124.203 117.805 124.874 117.082 125.464ZM115.596 118.079C115.242 117.645 114.822 117.205 114.337 116.758C113.841 116.319 113.313 115.967 112.752 115.702C112.191 115.437 111.613 115.298 111.017 115.285C110.43 115.283 109.863 115.505 109.315 115.952C108.768 116.399 108.437 116.91 108.322 117.486C108.215 118.073 108.241 118.663 108.399 119.257C108.555 119.869 108.798 120.463 109.129 121.036C109.459 121.61 109.797 122.108 110.143 122.532C110.489 122.955 110.91 123.386 111.406 123.825C111.899 124.282 112.427 124.643 112.988 124.908C113.557 125.184 114.135 125.323 114.722 125.325C115.318 125.338 115.889 125.121 116.437 124.674C116.984 124.227 117.316 123.706 117.433 123.112C117.548 122.536 117.528 121.941 117.372 121.329C117.214 120.735 116.969 120.151 116.639 119.577C116.298 119.012 115.95 118.513 115.596 118.079Z" fill="white"/>
<path d="M88.9501 125.868C88.8187 125.612 88.6139 125.504 88.3356 125.545L87.5978 125.643C87.2806 125.693 87.0872 125.576 87.0173 125.291C86.9444 124.993 87.044 124.783 87.3162 124.662C87.517 124.585 87.713 124.517 87.9041 124.456C88.092 124.383 88.2831 124.322 88.4773 124.274C89.1378 124.113 89.691 124.073 90.1369 124.156C90.5827 124.239 90.9322 124.545 91.1852 125.073L92.4585 127.664C92.7789 128.3 93.1409 128.685 93.5445 128.819C93.9383 128.97 94.4719 128.962 95.1453 128.797L95.8447 128.626L95.2782 126.315C95.2021 126.004 95.1259 125.693 95.0498 125.382C94.9639 125.087 94.8844 124.791 94.8114 124.493C94.7287 124.212 94.5336 124.088 94.2262 124.122L93.469 124.225C93.1616 124.259 92.973 124.134 92.9032 123.849C92.8334 123.564 92.9604 123.382 93.2842 123.303L97.8685 122.179C98.1923 122.1 98.3891 122.203 98.4589 122.488C98.5287 122.773 98.4114 122.966 98.1069 123.068L97.4266 123.317C97.1383 123.429 97.0242 123.635 97.0842 123.936C97.1603 124.247 97.2365 124.558 97.3126 124.869C97.379 125.196 97.4519 125.521 97.5312 125.845L98.8925 131.401C98.9718 131.724 99.056 132.04 99.1451 132.348C99.2245 132.671 99.3038 132.995 99.3831 133.319C99.482 133.61 99.6786 133.741 99.9731 133.71L100.691 133.616C101.012 133.579 101.205 133.696 101.272 133.968C101.342 134.253 101.215 134.435 100.891 134.514L95.8403 135.752C94.4158 136.101 93.2468 136.092 92.3334 135.726C91.4199 135.359 90.8442 134.69 90.6062 133.719C90.3873 132.826 90.4896 132.039 90.9132 131.358C91.3238 130.681 91.9229 130.157 92.7105 129.785C92.1253 129.75 91.6168 129.58 91.1849 129.274C90.7432 128.984 90.3492 128.524 90.0029 127.895L88.9501 125.868ZM96.0779 129.578L94.9512 129.854C94.1224 130.057 93.5046 130.421 93.0979 130.946C92.6815 131.488 92.5795 132.192 92.7921 133.06C92.9762 133.811 93.3295 134.329 93.852 134.612C94.3746 134.896 95.1021 134.924 96.0345 134.695L97.2194 134.405C97.1372 134.013 97.0549 133.622 96.9727 133.23C96.8775 132.841 96.7807 132.446 96.6824 132.045L96.0779 129.578Z" fill="white"/>
<path d="M70.7936 126.11C70.6702 126.398 70.4644 126.515 70.1764 126.459L69.9014 126.406C69.5479 126.338 69.417 126.136 69.5088 125.801L70.0571 123.483C70.1307 123.171 70.3246 123.046 70.6388 123.106L79.5943 124.831C79.9216 124.894 80.0575 125.069 80.002 125.358C79.9466 125.646 79.7592 125.772 79.4399 125.738L78.7178 125.68C78.4091 125.662 78.2192 125.802 78.1481 126.1C78.0876 126.415 78.0271 126.729 77.9665 127.043C77.8904 127.368 77.8208 127.694 77.7578 128.021L76.676 133.638C76.613 133.965 76.5577 134.287 76.5103 134.604C76.4473 134.931 76.3842 135.259 76.3212 135.586C76.2894 135.892 76.4137 136.093 76.6942 136.187L77.3861 136.402C77.6927 136.502 77.8196 136.689 77.7666 136.964C77.7112 137.252 77.5198 137.365 77.1924 137.302L68.6102 135.649C68.2959 135.588 68.1625 135.4 68.21 135.083L68.5619 132.727C68.6013 132.381 68.7977 132.243 69.1512 132.311L69.4261 132.364C69.7273 132.422 69.8763 132.6 69.8732 132.898L69.8682 134.404C69.8651 134.702 70.0141 134.88 70.3153 134.938L73.8896 135.627C73.9758 135.25 74.062 134.873 74.1482 134.495C74.2189 134.129 74.2907 133.756 74.3638 133.376L74.8102 131.059L72.6499 130.642C72.3487 130.584 72.1495 130.702 72.0523 130.996L71.7756 131.798C71.6783 132.092 71.4791 132.209 71.1779 132.151C70.8506 132.088 70.7185 131.893 70.7815 131.566L71.4397 128.149C71.5027 127.821 71.6913 127.688 72.0056 127.748C72.3198 127.809 72.4675 127.993 72.4488 128.302L72.3919 129.126C72.3732 129.435 72.521 129.62 72.8352 129.68L74.9955 130.096L75.4872 127.543C75.5654 127.137 75.6436 126.731 75.7217 126.325C75.7843 125.93 75.8468 125.535 75.9094 125.14L71.9423 124.376C71.6543 124.32 71.4485 124.437 71.325 124.725L70.7936 126.11Z" fill="white"/>
<path d="M37.7443 113.94C37.5295 113.685 37.5344 113.463 37.7587 113.274C37.9933 113.076 38.2246 113.082 38.4528 113.291L38.9673 113.746C39.1783 113.935 39.4064 113.978 39.6517 113.876L50.5389 109.727C50.8116 109.637 51.0338 109.694 51.2056 109.898L51.2313 109.928C51.4203 110.152 51.4429 110.386 51.299 110.629L45.5429 120.995C45.4195 121.221 45.4284 121.449 45.5695 121.678L45.8071 122.054C45.9741 122.314 45.9454 122.539 45.721 122.728C45.4966 122.917 45.2771 122.884 45.0624 122.629L42.2021 119.233C41.9874 118.978 41.9973 118.751 42.2319 118.554C42.4664 118.356 42.7021 118.367 42.9388 118.586L43.3841 119.022C43.5162 119.137 43.6487 119.191 43.7819 119.183C43.9064 119.166 44.0084 119.08 44.0878 118.926L48.3184 111.623L40.498 114.601C40.3327 114.653 40.235 114.744 40.2049 114.874C40.1663 114.994 40.1926 115.129 40.2839 115.279L40.697 115.924C40.864 116.185 40.8302 116.414 40.5956 116.611C40.361 116.809 40.1364 116.78 39.9217 116.525L37.7443 113.94Z" fill="white"/>
<path d="M30.831 97.6494C31.109 97.5557 31.318 97.6541 31.4581 97.9446L31.7638 98.6014C31.8996 98.8792 32.1087 98.9777 32.3909 98.8966C32.7068 98.7902 33.0185 98.6922 33.326 98.6027C33.6292 98.5005 33.9388 98.3962 34.2547 98.2898L39.6753 96.4635C39.9912 96.357 40.3071 96.2506 40.623 96.1442C40.9219 96.0294 41.2294 95.9188 41.5453 95.8123C41.8316 95.7018 41.9448 95.4948 41.8848 95.1914L41.7307 94.4836C41.6665 94.1676 41.767 93.9648 42.0323 93.8754C42.3103 93.7818 42.5025 93.8929 42.609 94.2088L44.116 98.6817C44.2224 98.9976 44.1366 99.2024 43.8587 99.296C43.5807 99.3897 43.378 99.2892 43.2505 98.9944L42.9448 98.3377C42.809 98.0598 42.5937 97.9635 42.2988 98.0488C41.9955 98.151 41.6923 98.2532 41.389 98.3553C41.0689 98.4491 40.7509 98.5492 40.435 98.6557L35.0144 100.482C34.6985 100.588 34.3911 100.699 34.0921 100.814C33.7762 100.92 33.4603 101.027 33.1444 101.133C32.8623 101.256 32.7491 101.463 32.8049 101.754L32.959 102.462C33.0232 102.778 32.9227 102.981 32.6573 103.07C32.3794 103.164 32.1871 103.053 32.0807 102.737L30.5737 98.2637C30.4673 97.9478 30.553 97.743 30.831 97.6494Z" fill="white"/>
<path d="M38.41 77.9655C38.1059 77.8878 37.9592 77.7024 37.9698 77.4092L37.9799 77.1294C37.9929 76.7697 38.1721 76.6094 38.5176 76.6485L40.8925 76.8345C41.2118 76.8593 41.3656 77.0317 41.3541 77.3515L41.0246 86.4655C41.0126 86.7986 40.86 86.9599 40.5668 86.9493C40.2737 86.9387 40.1196 86.773 40.1045 86.4523L40.0505 85.7298C40.0216 85.4219 39.8542 85.2558 39.5482 85.2314C39.2284 85.2198 38.9086 85.2083 38.5888 85.1967C38.2562 85.1713 37.9233 85.1526 37.5902 85.1406L31.874 84.9339C31.5408 84.9219 31.2141 84.9167 30.8939 84.9185C30.5608 84.9065 30.2276 84.8944 29.8945 84.8824C29.5871 84.8979 29.4081 85.0516 29.3575 85.3433L29.2516 86.0599C29.2 86.3783 29.0343 86.5324 28.7545 86.5223C28.4614 86.5117 28.3208 86.3398 28.3329 86.0067L28.6486 77.2724C28.6602 76.9526 28.8261 76.7918 29.1464 76.7901L31.5285 76.7761C31.8759 76.762 32.0431 76.9348 32.03 77.2946L32.0199 77.5744C32.0089 77.8809 31.8558 78.0554 31.5607 78.0981L30.0716 78.3245C29.7765 78.3672 29.6234 78.5418 29.6123 78.8482L29.4808 82.4859C29.8668 82.5132 30.2527 82.5405 30.6386 82.5678C31.0117 82.5812 31.3915 82.595 31.7779 82.6089L34.1363 82.6942L34.2158 80.4956C34.2269 80.1892 34.0799 80.0104 33.7749 79.9594L32.9398 79.8091C32.6348 79.758 32.4878 79.5793 32.4989 79.2728C32.5109 78.9397 32.6835 78.7792 33.0166 78.7912L36.4944 78.9169C36.8275 78.929 36.9882 79.0949 36.9767 79.4147C36.9651 79.7345 36.8054 79.9088 36.4975 79.9377L35.6744 80.008C35.3665 80.0369 35.2067 80.2112 35.1952 80.531L35.1157 82.7296L37.714 82.8235C38.1271 82.8385 38.5401 82.8534 38.9532 82.8683C39.3534 82.8695 39.7536 82.8706 40.1539 82.8717L40.2998 78.8344C40.3104 78.5412 40.1637 78.3558 39.8596 78.2781L38.41 77.9655Z" fill="white"/>
<path d="M40.1906 48.2835C40.3569 47.9946 40.5671 47.9233 40.8213 48.0696C41.0756 48.2159 41.1493 48.4353 41.0426 48.7277L40.7874 49.4116C40.6891 49.6626 40.7355 49.8893 40.9267 50.0917L48.8221 58.305C49.0249 58.514 49.0531 58.7456 48.9068 58.9999L48.8968 59.0172C48.7638 59.2483 48.5551 59.3436 48.2708 59.303L38.5076 57.4221L45.0783 64.8499C45.2562 65.0754 45.2787 65.3037 45.1456 65.5348C44.9993 65.789 44.7849 65.881 44.5023 65.8106L33.2578 63.2157C32.9984 63.1586 32.7815 63.2415 32.6071 63.4642L32.3157 63.8503C32.128 64.0961 31.9071 64.1459 31.6529 63.9996C31.3986 63.8532 31.3547 63.6356 31.5209 63.3467L33.7158 59.5332C33.8821 59.2443 34.0923 59.1731 34.3466 59.3194C34.6008 59.4657 34.6687 59.6817 34.5504 59.9675L34.3005 60.5621C34.149 60.9056 34.25 61.1176 34.6037 61.1981L42.1788 63.1119L36.9954 57.0825C36.89 56.945 36.7711 56.8842 36.6388 56.9004C36.5131 56.9049 36.3954 56.9757 36.2859 57.1126L35.8773 57.662C35.6897 57.9079 35.4687 57.9576 35.2145 57.8113C34.9603 57.665 34.9163 57.4474 35.0826 57.1585L37.2375 53.4143C37.4038 53.1254 37.614 53.0541 37.8683 53.2005C38.1225 53.3468 38.1905 53.5628 38.0722 53.8486L37.7923 54.4952C37.6541 54.8156 37.7675 55.0193 38.1328 55.1065L45.9668 56.7308L40.5219 51.0356C40.2796 50.7884 40.043 50.7984 39.8123 51.0656L39.3093 51.6991C39.1216 51.945 38.9007 51.9947 38.6465 51.8484C38.3922 51.7021 38.3482 51.4845 38.5145 51.1956L40.1906 48.2835Z" fill="white"/>
<path d="M77.0113 29.0157C77.0859 29.2994 76.9735 29.5013 76.6741 29.6213L76.0174 29.8765C75.731 29.9931 75.6186 30.1949 75.6802 30.482C75.7649 30.8044 75.8414 31.1221 75.9098 31.435C75.9911 31.7445 76.0741 32.0604 76.1588 32.3828L77.6121 37.9151C77.6968 38.2375 77.7815 38.5599 77.8662 38.8823C77.9604 39.1884 78.0498 39.5027 78.1345 39.8251C78.245 40.1407 78.4438 40.2677 78.7308 40.206L79.4282 40.1056C79.7479 40.0629 79.9433 40.177 80.0144 40.4479C80.0889 40.7316 79.965 40.9158 79.6426 41.0005L75.1742 42.1742C74.8518 42.2589 74.6533 42.1594 74.5788 41.8757C74.5077 41.6049 74.6218 41.4095 74.9211 41.2895L75.5442 41.0638C75.8307 40.9472 75.9349 40.7406 75.857 40.444C75.7852 40.1182 75.7087 39.8006 75.6274 39.4911C75.5427 39.1687 75.458 38.8463 75.3733 38.5239L73.8032 32.5467L72.0599 42.9923L71.3828 43.1702L64.6821 34.9013L66.7451 42.7548C66.823 43.0514 67.0154 43.1801 67.3221 43.1409L68.107 43.0588C68.4138 43.0196 68.6045 43.1418 68.679 43.4255C68.7535 43.7092 68.6296 43.8934 68.3072 43.9781L64.922 44.8674C64.5996 44.952 64.4012 44.8525 64.3266 44.5688C64.2521 44.2851 64.3581 44.085 64.6445 43.9684L65.4458 43.6338C65.7322 43.5172 65.8365 43.3106 65.7586 43.014L63.3297 33.7677C63.2484 33.4582 63.0544 33.3231 62.7476 33.3623L62.0116 33.4729C61.7048 33.5121 61.5142 33.3899 61.4396 33.1062C61.3651 32.8225 61.489 32.6383 61.8114 32.5536L64.8484 31.7558L71.5726 39.9565L73.3014 29.9282C73.3531 29.6527 73.5144 29.4794 73.7852 29.4082L76.416 28.7172C76.7383 28.6325 76.9368 28.732 77.0113 29.0157Z" fill="white"/>
<path d="M95.2314 30.064C96.1533 30.2791 96.9305 30.6452 97.5628 31.1625C98.2081 31.6827 98.7143 32.3005 99.0814 33.016C99.4514 33.7185 99.6739 34.496 99.7488 35.3487C99.8397 36.1914 99.7836 37.0477 99.5806 37.9177C99.3807 38.7746 99.0535 39.5609 98.599 40.2763C98.1445 40.9918 97.5944 41.589 96.9487 42.0682C96.3029 42.5473 95.5756 42.8773 94.7666 43.0583C93.9707 43.2422 93.1182 43.2281 92.2093 43.0161C91.4692 42.8434 90.7804 42.5389 90.1428 42.1026C89.5083 41.6534 88.9755 41.0909 88.5444 40.4153C88.1133 39.7397 87.8214 38.9664 87.6686 38.0956C87.5158 37.2248 87.5652 36.2505 87.8166 35.1728C88.0166 34.3158 88.3438 33.5296 88.7982 32.8141C89.2557 32.0857 89.8074 31.4819 90.4531 31.0028C91.1119 30.5267 91.8457 30.1982 92.6546 30.0172C93.4636 29.8363 94.3225 29.8519 95.2314 30.064ZM90.2902 35.7499C90.1629 36.2953 90.0705 36.8967 90.013 37.5541C89.9684 38.2146 90.0123 38.8478 90.1448 39.4538C90.2772 40.0597 90.5202 40.6025 90.8738 41.082C91.2305 41.5486 91.7529 41.8622 92.4411 42.0228C93.1293 42.1833 93.7365 42.1333 94.2628 41.8728C94.7922 41.5992 95.2438 41.2186 95.6178 40.7308C96.0077 40.233 96.3289 39.6782 96.5812 39.0662C96.8335 38.4541 97.0218 37.882 97.146 37.3496C97.2702 36.8172 97.3546 36.2208 97.3992 35.5603C97.4598 34.8899 97.4239 34.2517 97.2914 33.6458C97.162 33.0268 96.919 32.4841 96.5623 32.0175C96.2087 31.5379 95.6878 31.2179 94.9997 31.0573C94.3115 30.8967 93.6962 30.9517 93.1539 31.2222C92.6276 31.4828 92.1695 31.8619 91.7795 32.3597C91.4055 32.8474 91.0924 33.3973 90.8401 34.0093C90.6007 34.6244 90.4174 35.2046 90.2902 35.7499Z" fill="white"/>
<path d="M111.867 51.3757C111.744 51.6361 111.784 51.8641 111.986 52.0596L112.515 52.5838C112.748 52.8043 112.773 53.0291 112.59 53.2584C112.399 53.4981 112.172 53.5472 111.91 53.4059C111.726 53.2937 111.552 53.1804 111.388 53.066C111.215 52.9621 111.05 52.8477 110.894 52.723C110.362 52.2987 109.993 51.8848 109.787 51.481C109.58 51.0773 109.609 50.6139 109.873 50.091L111.148 47.5002C111.455 46.8586 111.539 46.3368 111.399 45.9351C111.278 45.5313 110.946 45.1131 110.404 44.6805L109.842 44.2314L108.357 46.0914C108.157 46.3415 107.957 46.5916 107.758 46.8417C107.577 47.0897 107.391 47.3335 107.2 47.5732C107.027 47.8107 107.048 48.0408 107.263 48.2634L107.807 48.8001C108.022 49.0226 108.037 49.2485 107.854 49.4778C107.671 49.707 107.45 49.7177 107.189 49.5097L103.5 46.5651C103.24 46.3572 103.201 46.1386 103.384 45.9093C103.567 45.6801 103.792 45.6548 104.059 45.8336L104.671 46.2203C104.936 46.3803 105.169 46.3447 105.371 46.1133C105.57 45.8632 105.77 45.6132 105.97 45.3631C106.188 45.1109 106.401 44.8545 106.609 44.594L110.178 40.1236C110.386 39.8631 110.584 39.6037 110.773 39.3452C110.981 39.0847 111.189 38.8242 111.397 38.5637C111.568 38.3074 111.551 38.0721 111.347 37.8579L110.834 37.3462C110.609 37.1153 110.583 36.8904 110.758 36.6716C110.941 36.4423 111.163 36.4317 111.423 36.6396L115.487 39.8837C116.634 40.7987 117.34 41.7298 117.608 42.6769C117.876 43.6241 117.697 44.4885 117.074 45.27C116.5 45.989 115.814 46.3885 115.016 46.4685C114.229 46.5568 113.448 46.4025 112.673 46.0056C113.003 46.4904 113.178 46.9973 113.2 47.5262C113.24 48.0529 113.117 48.6455 112.83 49.3038L111.867 51.3757ZM110.453 43.4655L111.36 44.1891C112.026 44.7215 112.692 44.9884 113.356 44.9897C114.039 44.989 114.659 44.6396 115.217 43.9414C115.699 43.337 115.893 42.7412 115.799 42.1541C115.705 41.567 115.282 40.974 114.532 40.3751L113.579 39.614C113.319 39.9183 113.059 40.2226 112.799 40.5269C112.549 40.8395 112.295 41.1573 112.038 41.4804L110.453 43.4655Z" fill="white"/>
<path d="M124.007 66.3269C124.311 66.2485 124.529 66.3403 124.661 66.6023L124.787 66.8523C124.948 67.1739 124.869 67.4007 124.547 67.5328L122.376 68.5141C122.085 68.6461 121.867 68.5692 121.723 68.2834L117.62 60.1382C117.471 59.8405 117.527 59.6257 117.789 59.4937C118.05 59.3618 118.265 59.4327 118.433 59.7065L118.828 60.3136C119.002 60.5695 119.229 60.6344 119.509 60.5084C119.795 60.3644 120.08 60.2205 120.366 60.0765C120.67 59.9385 120.971 59.7945 121.268 59.6446L126.377 57.0716C126.675 56.9216 126.963 56.7687 127.243 56.6129C127.541 56.4629 127.839 56.313 128.136 56.1631C128.398 56.0013 128.481 55.7804 128.385 55.5005L128.132 54.8214C128.024 54.5176 128.095 54.3028 128.345 54.1768C128.607 54.0449 128.813 54.1277 128.963 54.4254L132.894 62.2313C133.038 62.5171 132.971 62.7379 132.691 62.8938L130.61 64.0537C130.312 64.2334 130.083 64.1625 129.921 63.841L129.795 63.5909C129.657 63.317 129.707 63.0903 129.945 62.9107L131.141 61.9949C131.379 61.8153 131.429 61.5886 131.291 61.3147L129.653 58.0638C129.302 58.2258 128.951 58.3878 128.599 58.5498C128.266 58.7178 127.927 58.8887 127.581 59.0626L125.474 60.1242L126.463 62.0891C126.601 62.363 126.816 62.4488 127.108 62.3466L127.912 62.0759C128.204 61.9737 128.419 62.0595 128.557 62.3334C128.707 62.6311 128.633 62.8549 128.335 63.0049L125.227 64.5703C124.929 64.7202 124.709 64.6523 124.565 64.3665C124.421 64.0807 124.477 63.8509 124.733 63.6773L125.42 63.2191C125.676 63.0454 125.732 62.8157 125.588 62.5299L124.598 60.565L122.276 61.7346C121.907 61.9205 121.538 62.1064 121.169 62.2924C120.817 62.4842 120.466 62.676 120.115 62.8679L121.932 66.4761C122.064 66.7381 122.282 66.8298 122.586 66.7514L124.007 66.3269Z" fill="white"/>
</svg>
