<?xml version="1.0" encoding="utf-8"?>
<!-- Generator: Adobe Illustrator 16.0.0, SVG Export Plug-In . SVG Version: 6.00 Build 0)  -->
<!DOCTYPE svg PUBLIC "-//W3C//DTD SVG 1.1//EN" "http://www.w3.org/Graphics/SVG/1.1/DTD/svg11.dtd">
<svg version="1.1" id="Layer_1" xmlns="http://www.w3.org/2000/svg" xmlns:xlink="http://www.w3.org/1999/xlink" x="0px" y="0px"
	 width="107.119px" height="107.137px" viewBox="0 0 107.119 107.137" enable-background="new 0 0 107.119 107.137"
	 xml:space="preserve">
<g>
	<path d="M44.231,12.335l0.464-0.061c0.239,0.816,0.678,1.485,1.314,2.007s1.39,0.727,2.258,0.613
		c0.75-0.098,1.307-0.394,1.672-0.89c0.365-0.495,0.504-1.076,0.417-1.743c-0.073-0.559-0.3-1.001-0.681-1.327
		c-0.381-0.325-0.943-0.597-1.686-0.815l-0.865-0.232c-1.042-0.288-1.852-0.654-2.431-1.099c-0.578-0.445-0.924-1.102-1.037-1.971
		c-0.13-1,0.11-1.805,0.72-2.417s1.444-0.987,2.503-1.125c0.678-0.088,1.295-0.042,1.852,0.14c0.225,0.056,0.379,0.078,0.463,0.067
		c0.095-0.012,0.161-0.06,0.199-0.144c0.038-0.083,0.065-0.199,0.082-0.346l0.393-0.051l0.59,3.136l-0.464,0.061
		c-0.222-0.77-0.583-1.364-1.086-1.783c-0.502-0.418-1.14-0.577-1.914-0.477c-0.631,0.083-1.111,0.317-1.442,0.705
		c-0.331,0.388-0.453,0.916-0.366,1.582c0.075,0.571,0.3,1.002,0.677,1.292c0.376,0.29,0.929,0.539,1.658,0.746l0.903,0.245
		c0.667,0.192,1.229,0.397,1.687,0.615c0.458,0.219,0.853,0.533,1.185,0.944c0.332,0.411,0.54,0.937,0.624,1.58
		c0.136,1.047-0.116,1.921-0.757,2.622c-0.641,0.701-1.574,1.131-2.8,1.291c-0.452,0.059-0.831,0.075-1.137,0.048
		c-0.306-0.027-0.633-0.078-0.982-0.153c-0.227-0.067-0.399-0.093-0.519-0.078c-0.131,0.017-0.224,0.072-0.278,0.163
		c-0.055,0.092-0.08,0.204-0.074,0.336l-0.446,0.058L44.231,12.335z"/>
	<path d="M55.043,13.433c-0.841-1.179-1.148-2.698-0.92-4.556c0.239-1.954,0.929-3.422,2.071-4.407
		c1.142-0.984,2.618-1.366,4.429-1.145c0.488,0.06,0.899,0.155,1.234,0.287c0.334,0.131,0.672,0.291,1.012,0.477
		c0.259,0.153,0.454,0.237,0.585,0.253c0.214,0.026,0.368-0.04,0.459-0.198l0.078-0.19l0.482,0.059l-0.215,3.238l-0.482-0.059
		c-0.258-1.942-1.292-3.023-3.103-3.245C59.685,3.827,58.86,4.02,58.2,4.525C57.54,5.031,57.04,5.686,56.699,6.49
		s-0.562,1.624-0.663,2.458c-0.118,0.965-0.092,1.884,0.08,2.757c0.171,0.873,0.523,1.605,1.055,2.196
		c0.532,0.591,1.251,0.942,2.156,1.052c0.726,0.089,1.34,0.04,1.84-0.146c0.5-0.187,0.897-0.44,1.19-0.761
		c0.293-0.32,0.569-0.701,0.829-1.141l0.418,0.287c-0.382,0.751-0.926,1.368-1.631,1.849c-0.706,0.482-1.702,0.645-2.988,0.487
		C57.198,15.31,55.884,14.611,55.043,13.433z"/>
	<path d="M64.402,15.665c0.398,0.166,0.697,0.261,0.895,0.285c0.198,0.024,0.347-0.014,0.448-0.116
		c0.101-0.101,0.208-0.29,0.324-0.567l3.385-8.125c0.12-0.288,0.177-0.504,0.173-0.649c-0.005-0.145-0.083-0.278-0.233-0.399
		c-0.151-0.121-0.425-0.265-0.824-0.431l0.201-0.482l4.47,1.862c1.097,0.457,1.86,1.042,2.292,1.754
		c0.431,0.713,0.459,1.518,0.086,2.415c-0.314,0.753-0.781,1.274-1.401,1.562c-0.621,0.287-1.325,0.364-2.114,0.23l-0.014,0.033
		c0.496,0.401,0.801,0.847,0.916,1.337c0.114,0.49,0.071,1.147-0.13,1.974l-0.156,0.656c-0.148,0.667-0.183,1.188-0.106,1.564
		c0.077,0.377,0.326,0.653,0.747,0.828l-0.201,0.482l-2.16-0.9c-0.177-0.386-0.187-0.988-0.028-1.806l0.453-2.21
		c0.12-0.6,0.085-1.086-0.105-1.457c-0.189-0.372-0.573-0.678-1.148-0.917l-1.014-0.422l-1.558,3.739
		c-0.115,0.277-0.172,0.491-0.169,0.641c0.002,0.15,0.088,0.287,0.258,0.41c0.169,0.123,0.465,0.271,0.886,0.447l-0.201,0.482
		l-4.171-1.738L64.402,15.665z M70.452,12.003c0.841,0.351,1.539,0.424,2.093,0.219c0.553-0.205,0.996-0.706,1.329-1.503
		c0.332-0.798,0.372-1.47,0.119-2.018s-0.8-0.997-1.642-1.347c-0.421-0.175-0.715-0.242-0.881-0.201s-0.296,0.172-0.388,0.394
		l-1.675,4.021L70.452,12.003z"/>
	<path d="M75.23,19.588c-0.014-1.442,0.553-2.888,1.7-4.336c1.14-1.439,2.417-2.326,3.83-2.662c1.414-0.334,2.835,0.064,4.265,1.196
		c1.439,1.14,2.158,2.436,2.156,3.889c-0.002,1.453-0.573,2.898-1.713,4.337c-1.147,1.449-2.424,2.332-3.831,2.649
		c-1.407,0.317-2.825-0.091-4.255-1.223C75.96,22.313,75.243,21.03,75.23,19.588z M80.898,23.434
		c1.065-0.496,2.09-1.364,3.074-2.606c1.043-1.317,1.677-2.533,1.902-3.648s-0.18-2.083-1.214-2.902
		c-1.035-0.82-2.07-0.992-3.104-0.518c-1.034,0.475-2.073,1.371-3.116,2.688c-0.983,1.242-1.594,2.438-1.832,3.589
		c-0.238,1.151,0.151,2.129,1.167,2.934C78.791,23.774,79.832,23.929,80.898,23.434z"/>
	<path d="M82.381,26.735c0.273,0.365,0.484,0.608,0.634,0.729c0.149,0.121,0.294,0.159,0.433,0.115
		c0.139-0.044,0.349-0.17,0.627-0.379l6.952-5.19c0.269-0.201,0.443-0.365,0.521-0.49c0.078-0.126,0.083-0.28,0.015-0.461
		c-0.068-0.182-0.235-0.45-0.5-0.806l0.418-0.313l2.671,3.577l-0.418,0.312c-0.273-0.365-0.488-0.609-0.646-0.73
		c-0.158-0.122-0.309-0.163-0.451-0.124c-0.143,0.039-0.349,0.16-0.619,0.36l-6.591,4.922c-0.356,0.266-0.579,0.503-0.669,0.713
		c-0.091,0.21-0.074,0.448,0.051,0.715c0.124,0.267,0.376,0.655,0.757,1.165c0.424,0.567,0.803,0.965,1.139,1.194
		c0.335,0.229,0.705,0.327,1.108,0.296c0.403-0.032,0.93-0.193,1.581-0.484l0.28,0.375l-2.585,1.683l-5.126-6.865L82.381,26.735z"/>
	<path d="M88.105,34.648c0.174,0.421,0.319,0.708,0.435,0.862c0.115,0.153,0.246,0.226,0.392,0.218
		c0.146-0.009,0.379-0.079,0.701-0.212l8.016-3.318c0.311-0.128,0.519-0.244,0.626-0.347c0.107-0.103,0.15-0.25,0.128-0.442
		c-0.021-0.193-0.117-0.494-0.287-0.904l0.482-0.2l1.708,4.125l-0.482,0.2c-0.174-0.421-0.323-0.71-0.446-0.867
		c-0.124-0.157-0.259-0.233-0.407-0.23c-0.148,0.003-0.378,0.068-0.688,0.197l-7.601,3.146c-0.411,0.17-0.685,0.345-0.824,0.526
		c-0.14,0.181-0.182,0.416-0.127,0.705c0.054,0.289,0.204,0.727,0.447,1.315c0.271,0.654,0.541,1.133,0.81,1.438
		c0.269,0.304,0.603,0.491,1.001,0.56s0.949,0.042,1.652-0.08l0.179,0.433L90.9,42.764l-3.277-7.917L88.105,34.648z"/>
	<path d="M92.614,47.63c0.007,0.456,0.036,0.776,0.087,0.961c0.051,0.185,0.146,0.301,0.285,0.347
		c0.139,0.045,0.382,0.066,0.73,0.06l8.675-0.141c0.348-0.005,0.591-0.037,0.728-0.093c0.137-0.056,0.228-0.175,0.273-0.355
		s0.064-0.499,0.057-0.955l0.522-0.008l0.086,5.345c0.006,1.884-0.468,3.338-1.423,4.362c-0.956,1.023-2.363,1.55-4.223,1.581
		c-2.016,0.033-3.552-0.489-4.607-1.563c-1.056-1.075-1.6-2.615-1.632-4.618l-0.08-4.914L92.614,47.63z M98.307,56.809
		c1.631-0.026,2.898-0.398,3.798-1.115c0.9-0.716,1.345-1.825,1.333-3.325c-0.009-0.576-0.034-0.99-0.074-1.241
		c-0.04-0.251-0.121-0.418-0.242-0.5c-0.122-0.082-0.32-0.121-0.596-0.116l-8.405,0.136c-0.384,0.006-0.674,0.065-0.87,0.176
		s-0.329,0.287-0.396,0.529c-0.068,0.241-0.099,0.583-0.091,1.027C92.812,55.392,94.659,56.868,98.307,56.809z"/>
	<path d="M93.052,61.637c1.341-0.531,2.893-0.521,4.658,0.029c1.752,0.547,3.039,1.419,3.859,2.618
		c0.82,1.198,0.959,2.668,0.416,4.41c-0.547,1.752-1.498,2.889-2.854,3.409c-1.356,0.52-2.911,0.506-4.664-0.041
		c-1.764-0.55-3.047-1.425-3.848-2.624c-0.802-1.199-0.931-2.669-0.388-4.41C90.771,63.298,91.711,62.167,93.052,61.637z
		 M91.5,68.308c0.845,0.817,2.024,1.461,3.536,1.933c1.604,0.5,2.966,0.655,4.088,0.464c1.122-0.191,1.879-0.917,2.272-2.176
		c0.393-1.26,0.183-2.288-0.632-3.082s-2.023-1.442-3.627-1.942c-1.512-0.472-2.848-0.612-4.007-0.42
		c-1.16,0.191-1.933,0.906-2.318,2.143S90.654,67.491,91.5,68.308z"/>
	<path d="M96.829,77.38c0.301,0.118,0.536,0.184,0.705,0.197s0.321-0.031,0.457-0.133c0.135-0.102,0.302-0.288,0.502-0.558
		l0.42,0.311l-2.409,3.256l-0.42-0.311l0.45-0.607c0.086-0.116,0.133-0.215,0.142-0.298c0.009-0.083-0.03-0.156-0.117-0.22
		c-0.029-0.021-0.145-0.077-0.347-0.167l-8.165-3.218l-0.032,0.043l6.052,7.589l-0.589,0.796l-9.181-3.388l-0.042,0.058l5.534,6.714
		c0.095,0.114,0.185,0.204,0.272,0.268c0.096,0.071,0.184,0.099,0.263,0.083c0.08-0.017,0.166-0.087,0.258-0.212l0.493-0.666
		l0.419,0.31l-2.098,2.836l-0.419-0.311c0.214-0.289,0.348-0.53,0.4-0.723s0.041-0.384-0.035-0.574
		c-0.076-0.19-0.222-0.441-0.44-0.751l-6.434-8.252l0.631-0.854l8.986,3.289l0.021-0.029l-5.881-7.485l0.653-0.883L96.829,77.38z"/>
	<path d="M83.401,92.276l0.03-0.02l-4.792-7.21c-0.186-0.28-0.376-0.441-0.571-0.485c-0.194-0.044-0.427,0.024-0.697,0.204
		l-0.584,0.389l-0.289-0.435l3.058-2.033l0.289,0.435l-0.435,0.289c-0.24,0.159-0.376,0.339-0.408,0.541
		c-0.032,0.201,0.042,0.437,0.221,0.707l4.912,7.391c0.173,0.26,0.321,0.428,0.444,0.505c0.123,0.076,0.272,0.085,0.449,0.025
		c0.176-0.06,0.453-0.208,0.829-0.443l0.289,0.435l-2.519,1.674l-10.153-4.317l-0.045,0.03l4.334,6.521
		c0.319,0.48,0.733,0.55,1.243,0.211l0.584-0.389l0.289,0.435l-3.058,2.032l-0.289-0.435l0.45-0.299
		c0.46-0.306,0.53-0.698,0.211-1.178l-5.869-8.83l0.734-0.488L83.401,92.276z"/>
	<path d="M69.076,92.859c0.484,0.088,0.913,0.288,1.286,0.601c0.374,0.313,0.645,0.706,0.815,1.18
		c0.166,0.463,0.204,0.934,0.114,1.413c-0.09,0.478-0.291,0.904-0.604,1.277c-0.313,0.373-0.706,0.645-1.18,0.815
		c-0.463,0.166-0.934,0.204-1.413,0.114c-0.478-0.09-0.904-0.291-1.277-0.604c-0.373-0.313-0.643-0.7-0.809-1.163
		c-0.166-0.463-0.205-0.937-0.117-1.421c0.088-0.484,0.288-0.913,0.601-1.286s0.7-0.643,1.163-0.809
		C68.118,92.81,68.592,92.771,69.076,92.859z"/>
	<path d="M63.286,94.715l-0.463,0.065c-0.248-0.813-0.692-1.478-1.335-1.994c-0.642-0.516-1.396-0.712-2.264-0.59
		c-0.749,0.105-1.303,0.407-1.663,0.906c-0.359,0.499-0.493,1.081-0.399,1.747c0.079,0.558,0.311,0.998,0.695,1.32
		c0.385,0.321,0.949,0.587,1.694,0.798l0.868,0.223c1.045,0.277,1.859,0.635,2.441,1.074c0.583,0.439,0.936,1.092,1.058,1.96
		c0.14,0.998-0.091,1.806-0.695,2.424c-0.604,0.618-1.435,1.001-2.492,1.15c-0.677,0.096-1.295,0.055-1.853-0.121
		c-0.226-0.053-0.38-0.074-0.463-0.062c-0.095,0.013-0.161,0.062-0.198,0.146s-0.063,0.2-0.078,0.348l-0.393,0.055l-0.622-3.13
		l0.463-0.065c0.229,0.768,0.597,1.358,1.104,1.771c0.507,0.414,1.146,0.566,1.918,0.457c0.63-0.088,1.108-0.329,1.435-0.72
		c0.327-0.392,0.443-0.92,0.349-1.585c-0.08-0.57-0.31-0.999-0.689-1.284c-0.379-0.286-0.935-0.529-1.666-0.729l-0.906-0.236
		c-0.668-0.185-1.232-0.384-1.693-0.598c-0.46-0.214-0.858-0.524-1.194-0.932s-0.549-0.932-0.64-1.573
		c-0.147-1.046,0.096-1.922,0.729-2.629c0.634-0.707,1.563-1.147,2.787-1.319c0.452-0.064,0.831-0.083,1.137-0.06
		s0.634,0.071,0.983,0.143c0.228,0.065,0.4,0.089,0.519,0.072c0.131-0.018,0.223-0.074,0.277-0.166s0.077-0.205,0.071-0.337
		l0.445-0.063L63.286,94.715z"/>
	<path d="M52.497,93.729c0.854,1.169,1.178,2.684,0.971,4.545c-0.217,1.956-0.891,3.433-2.022,4.43
		c-1.131,0.997-2.603,1.395-4.416,1.194c-0.489-0.055-0.901-0.146-1.237-0.273c-0.336-0.128-0.675-0.283-1.017-0.466
		c-0.261-0.15-0.457-0.232-0.588-0.247c-0.215-0.024-0.367,0.043-0.457,0.203l-0.076,0.19l-0.483-0.054l0.179-3.24l0.483,0.054
		c0.28,1.938,1.326,3.009,3.139,3.21c0.99,0.11,1.813-0.091,2.467-0.604c0.655-0.513,1.148-1.174,1.479-1.982
		c0.332-0.809,0.543-1.63,0.636-2.465c0.107-0.966,0.071-1.885-0.11-2.756c-0.181-0.872-0.541-1.6-1.079-2.185
		c-0.539-0.585-1.261-0.928-2.168-1.029c-0.727-0.081-1.34-0.025-1.838,0.167c-0.499,0.192-0.893,0.45-1.182,0.774
		c-0.29,0.324-0.561,0.707-0.816,1.15l-0.421-0.282c0.374-0.755,0.911-1.378,1.611-1.868s1.694-0.663,2.982-0.52
		C50.321,91.875,51.643,92.56,52.497,93.729z"/>
	<path d="M43.099,91.598c-0.401-0.162-0.7-0.254-0.898-0.276c-0.198-0.021-0.347,0.018-0.447,0.121
		c-0.099,0.102-0.205,0.292-0.318,0.57l-3.298,8.161c-0.117,0.29-0.172,0.506-0.166,0.651c0.006,0.145,0.085,0.277,0.238,0.397
		s0.428,0.261,0.829,0.422l-0.196,0.484l-4.489-1.814c-1.102-0.445-1.871-1.021-2.31-1.729c-0.438-0.708-0.476-1.513-0.112-2.414
		c0.306-0.757,0.767-1.282,1.384-1.576c0.617-0.294,1.321-0.379,2.112-0.253l0.013-0.033c-0.5-0.396-0.81-0.839-0.929-1.327
		s-0.083-1.147,0.109-1.975l0.149-0.658c0.141-0.668,0.17-1.19,0.089-1.566c-0.081-0.376-0.333-0.649-0.756-0.82l0.196-0.484
		l2.169,0.876c0.182,0.384,0.197,0.986,0.047,1.805l-0.429,2.215c-0.113,0.601-0.073,1.086,0.12,1.456
		c0.194,0.37,0.58,0.671,1.158,0.905l1.018,0.412l1.518-3.755c0.112-0.278,0.167-0.492,0.163-0.643
		c-0.004-0.15-0.091-0.286-0.263-0.407c-0.171-0.121-0.468-0.267-0.891-0.438l0.195-0.484l4.189,1.692L43.099,91.598z
		 M37.089,95.323c-0.846-0.342-1.544-0.407-2.095-0.196s-0.989,0.717-1.313,1.518c-0.324,0.801-0.356,1.474-0.097,2.019
		c0.259,0.544,0.811,0.988,1.657,1.329c0.423,0.171,0.717,0.235,0.883,0.192c0.166-0.043,0.294-0.176,0.384-0.398l1.632-4.039
		L37.089,95.323z"/>
	<path d="M32.224,87.787c0.029,1.442-0.522,2.893-1.655,4.354c-1.125,1.451-2.392,2.352-3.802,2.702
		c-1.409,0.35-2.835-0.034-4.277-1.151c-1.451-1.125-2.183-2.414-2.196-3.866c-0.013-1.453,0.543-2.904,1.667-4.355
		c1.132-1.46,2.4-2.357,3.803-2.688c1.404-0.332,2.826,0.061,4.268,1.178C31.465,85.069,32.196,86.345,32.224,87.787z
		 M26.516,84.001c-1.06,0.506-2.076,1.386-3.046,2.638c-1.029,1.328-1.65,2.551-1.864,3.668c-0.213,1.118,0.202,2.081,1.245,2.89
		s2.08,0.97,3.108,0.485c1.029-0.486,2.058-1.392,3.087-2.72c0.971-1.252,1.569-2.455,1.794-3.608
		c0.226-1.153-0.173-2.127-1.198-2.921S27.577,83.494,26.516,84.001z"/>
	<path d="M25.019,80.736c-0.277-0.362-0.491-0.603-0.642-0.722s-0.296-0.155-0.435-0.109c-0.139,0.046-0.346,0.174-0.623,0.386
		l-6.893,5.268c-0.267,0.204-0.439,0.37-0.516,0.497c-0.077,0.126-0.08,0.28-0.01,0.46c0.07,0.181,0.24,0.448,0.509,0.8
		l-0.415,0.317l-2.711-3.547l0.415-0.317c0.277,0.363,0.495,0.604,0.654,0.723c0.16,0.12,0.311,0.159,0.453,0.118
		c0.143-0.041,0.347-0.163,0.614-0.367l6.536-4.995c0.353-0.27,0.573-0.51,0.661-0.721s0.068-0.449-0.059-0.714
		c-0.127-0.265-0.384-0.65-0.771-1.156c-0.43-0.563-0.813-0.956-1.152-1.181c-0.338-0.225-0.708-0.319-1.111-0.283
		s-0.928,0.204-1.576,0.502l-0.284-0.372l2.565-1.712l5.203,6.808L25.019,80.736z"/>
	<path d="M19.194,72.867c-0.179-0.419-0.327-0.705-0.444-0.857c-0.117-0.152-0.249-0.224-0.395-0.213
		c-0.146,0.01-0.378,0.083-0.699,0.22l-7.98,3.404c-0.309,0.132-0.517,0.25-0.623,0.354c-0.105,0.104-0.146,0.252-0.124,0.444
		c0.023,0.192,0.122,0.493,0.296,0.901l-0.48,0.205l-1.752-4.106l0.48-0.205c0.179,0.42,0.331,0.707,0.456,0.862
		c0.125,0.156,0.262,0.231,0.41,0.227s0.376-0.073,0.686-0.205l7.566-3.228c0.408-0.174,0.681-0.353,0.818-0.535
		c0.138-0.183,0.178-0.418,0.12-0.707c-0.058-0.289-0.211-0.725-0.461-1.31c-0.278-0.651-0.553-1.127-0.825-1.429
		c-0.272-0.302-0.608-0.484-1.007-0.549c-0.399-0.064-0.95-0.032-1.651,0.098l-0.184-0.43l2.909-1.026l3.362,7.881L19.194,72.867z"
		/>
	<path d="M14.499,59.926c-0.008-0.456-0.038-0.776-0.09-0.962c-0.051-0.185-0.146-0.3-0.285-0.346s-0.382-0.065-0.73-0.059
		l-8.674,0.158c-0.348,0.006-0.59,0.038-0.728,0.094c-0.137,0.056-0.228,0.175-0.272,0.356c-0.044,0.181-0.063,0.499-0.055,0.955
		l-0.522,0.009l-0.097-5.345c-0.01-1.884,0.461-3.339,1.415-4.365s2.36-1.555,4.22-1.589c2.016-0.037,3.553,0.481,4.61,1.554
		s1.604,2.611,1.641,4.615l0.089,4.913L14.499,59.926z M8.787,50.758c-1.631,0.03-2.897,0.404-3.796,1.122
		c-0.899,0.719-1.341,1.828-1.326,3.328c0.01,0.576,0.036,0.99,0.077,1.241c0.041,0.251,0.122,0.418,0.243,0.5
		c0.122,0.082,0.32,0.12,0.596,0.115l8.405-0.153c0.384-0.007,0.674-0.066,0.87-0.178c0.196-0.112,0.328-0.288,0.396-0.529
		c0.067-0.241,0.097-0.584,0.089-1.028C14.285,52.164,12.434,50.692,8.787,50.758z"/>
	<path d="M13.96,45.938c-1.335,0.546-2.888,0.553-4.658,0.021c-1.759-0.527-3.055-1.386-3.888-2.576
		c-0.833-1.189-0.988-2.658-0.464-4.405c0.527-1.759,1.467-2.905,2.817-3.439c1.351-0.535,2.905-0.538,4.664-0.011
		c1.77,0.531,3.062,1.392,3.876,2.582c0.814,1.19,0.959,2.659,0.435,4.406C16.223,44.252,15.295,45.393,13.96,45.938z M15.44,39.25
		c-0.854-0.807-2.04-1.439-3.557-1.894c-1.609-0.482-2.974-0.623-4.093-0.42c-1.119,0.203-1.869,0.937-2.248,2.201
		c-0.379,1.264-0.158,2.289,0.666,3.075c0.823,0.786,2.039,1.42,3.648,1.902c1.517,0.456,2.854,0.581,4.012,0.377
		c1.157-0.204,1.922-0.927,2.294-2.168C16.535,41.082,16.294,40.058,15.44,39.25z"/>
	<path d="M10.001,30.257c-0.302-0.114-0.538-0.177-0.708-0.189c-0.169-0.011-0.321,0.035-0.455,0.138
		C8.706,30.31,8.54,30.498,8.343,30.77L7.92,30.464l2.372-3.283l0.423,0.306L10.272,28.1c-0.084,0.117-0.13,0.216-0.139,0.299
		c-0.008,0.083,0.032,0.156,0.119,0.219c0.029,0.021,0.146,0.076,0.349,0.163l8.2,3.127l0.032-0.044l-6.136-7.52l0.58-0.803
		l9.219,3.285l0.042-0.059l-5.609-6.651c-0.096-0.114-0.188-0.202-0.275-0.265c-0.097-0.07-0.186-0.097-0.264-0.08
		c-0.079,0.017-0.165,0.089-0.255,0.215l-0.485,0.671l-0.423-0.306l2.066-2.859l0.423,0.306c-0.211,0.292-0.342,0.534-0.392,0.727
		c-0.051,0.193-0.037,0.384,0.041,0.574s0.227,0.438,0.449,0.746l6.526,8.179l-0.622,0.861l-9.022-3.188l-0.021,0.029l5.965,7.419
		l-0.643,0.89L10.001,30.257z"/>
	<path d="M23.289,15.189l-0.03,0.02l4.869,7.16c0.189,0.278,0.381,0.438,0.576,0.479s0.427-0.029,0.695-0.211l0.58-0.395
		l0.294,0.432l-3.037,2.064l-0.293-0.432l0.432-0.293c0.238-0.162,0.372-0.344,0.402-0.545s-0.046-0.437-0.229-0.704l-4.99-7.338
		c-0.175-0.258-0.325-0.425-0.449-0.5s-0.273-0.083-0.45-0.021c-0.175,0.062-0.451,0.212-0.824,0.452l-0.293-0.432l2.5-1.7
		l10.198,4.21l0.044-0.03l-4.402-6.475c-0.324-0.477-0.739-0.542-1.245-0.199l-0.581,0.395l-0.293-0.432l3.037-2.065l0.293,0.432
		l-0.447,0.304c-0.457,0.311-0.522,0.704-0.199,1.18l5.961,8.767l-0.729,0.496L23.289,15.189z"/>
	<path d="M37.601,14.458c-0.485-0.083-0.916-0.278-1.292-0.586c-0.376-0.308-0.652-0.699-0.828-1.171
		c-0.171-0.461-0.214-0.932-0.129-1.411c0.085-0.479,0.281-0.907,0.59-1.284s0.699-0.652,1.171-0.828
		c0.461-0.171,0.932-0.214,1.411-0.129c0.479,0.085,0.907,0.282,1.284,0.59c0.376,0.309,0.65,0.693,0.821,1.154
		c0.171,0.462,0.215,0.935,0.132,1.419c-0.083,0.485-0.278,0.916-0.586,1.292c-0.309,0.377-0.693,0.65-1.154,0.821
		C38.559,14.497,38.085,14.541,37.601,14.458z"/>
</g>
</svg>
