<svg width="454" height="185" viewBox="0 0 454 185" fill="none" xmlns="http://www.w3.org/2000/svg">
<g clip-path="url(#clip0)">
<path d="M453.5 66.1001C453.2 65.3001 452.4 65.5001 451.8 65.5001C448.1 65.5001 444.5 65.5001 440.8 65.5001C439.8 65.5001 438.8 65.8001 437.7 65.2001C438.1 64.6001 438.5 64.2001 438.8 63.7001C442.1 59.6001 445.4 55.4001 448.7 51.3001C449.1 50.8001 449.9 50.2001 449.5 49.4001C449.1 48.6001 448.2 49.0001 447.5 48.9001C446.3 48.8001 445 49.0001 443.8 48.8001C442.1 48.5001 441 49.1001 440 50.4001C436.5 55.0001 432.8 59.4001 429.3 64.0001C428.4 65.2001 427.5 65.7001 426.1 65.6001C423.1 65.5001 420.1 65.6001 417.1 65.6001C415.1 65.6001 413.8 67.1001 413.8 68.6001C413.8 70.2001 415.7 69.5001 416.8 69.5001C419.4 69.6001 422 69.5001 424.9 69.5001C418.9 77.3001 413.1 84.7001 407.6 92.2001C404.3 96.7001 400.6 100.7 396 103.9C392.1 106.6 388.3 109.4 383.7 110.8C381.5 111.4 380.6 110.6 381 108.4C381.3 106.7 382.1 105.2 383 103.7C385.8 99.2001 389.4 95.3001 392.9 91.3001C395.6 88.1001 398.3 84.9001 401.2 81.6001C396.1 81.2001 391.3 80.5001 388.7 86.1001C386.5 81.9001 383.2 80.7001 379.3 81.1001C378 81.2001 376.7 81.4001 375.5 81.8001C365.1 85.2001 356.9 91.3001 351.4 100.8C351 101.5 350.6 102 350 102.4C346 105.4 341.8 108.3 337.3 110.7C335.9 111.5 334 113 332.6 111.5C331.1 109.9 332.9 108.2 333.9 106.8C337.7 101.4 341.9 96.3001 346.6 91.6001C347.7 90.5001 348.6 89.3001 349.3 87.8001C350.4 85.2001 349.3 83.3001 346.4 83.0001C343.7 82.6001 340.9 82.7001 338.3 81.9001C338.2 80.9001 339 80.5001 339.3 80.0001C341.2 77.2001 343.5 74.6001 344.7 71.3001C345.2 69.8001 345.3 68.4001 344.2 67.2001C343.1 65.9001 341.6 66.0001 340.1 66.4001C336.4 67.6001 333.2 69.7001 330.9 72.9001C327.9 77.1001 328.2 80.4001 332 83.9001C325.8 91.3001 319.4 98.6001 311.8 104.7C309 107 306.1 109.3 302.6 110.6C301.7 110.9 300.9 111.2 300.1 110.5C299.4 109.8 299.5 108.9 299.7 108C300.3 105.9 301.4 104 302.6 102.1C306.8 96.2001 311.9 91.0001 316.5 85.4001C317.5 84.1001 318.6 82.9001 319.8 81.4001C314.6 81.0001 309.8 80.2001 307.2 86.0001C305.3 82.2001 302.5 80.8001 298.8 80.9001C297.2 80.9001 295.5 81.1001 294 81.6001C286.3 84.0001 279.3 88.0001 274.5 94.4001C270.6 99.6001 265.8 102.9 260.1 105.3C258.2 106.1 256.3 107.2 254.4 108C251.8 109.2 249.1 110.2 246.3 110.7C244.9 111 243.3 111.3 242.2 109.9C241.2 108.5 241.4 106.9 242.2 105.5C243 104 244 102.6 245 101.2C248.5 96.5001 252.6 92.3001 257.2 88.6001C258.9 87.2001 260.7 85.9001 262.7 85.0001C263.8 84.5001 265.3 83.8001 266 85.0001C266.7 86.1001 265.2 86.7001 264.4 87.4001C263.1 88.6001 261.5 89.6001 261.4 91.6001C261.3 92.8001 261.5 93.9001 262.6 94.6001C263.8 95.3001 264.8 94.7001 265.7 94.0001C267.2 92.8001 268.2 91.2001 268.8 89.4001C269.5 87.1001 270.4 84.7001 268.6 82.7001C266.9 80.7001 264.4 81.2001 262.2 81.8001C251.8 84.5001 243.2 90.0001 237.1 99.1001C236.6 99.8001 236.1 100.4 235.4 100.7C229.3 103.5 223.4 106.8 217.1 109.3C215 110.1 212.8 110.9 210.5 110.9C208.4 110.9 207.2 109.4 207.6 107.4C207.8 106.5 208.1 105.7 208.6 104.9C213.5 97.1001 219.9 90.6001 227.6 85.6001C228.6 84.9001 229.8 84.5001 231 84.6001C231.4 84.6001 231.8 84.6001 232.1 85.0001C232.5 85.6001 232 85.9001 231.7 86.3001C231 87.0001 230.3 87.6001 229.5 88.3001C228.6 89.1001 227.8 89.9001 227.4 91.0001C226.9 92.5001 227.1 93.7001 228.4 94.7001C229.6 95.7001 230.7 94.9001 231.7 94.2001C233.2 93.0001 234.2 91.4001 234.7 89.6001C235.4 87.3001 236.2 84.8001 234.5 82.9001C232.8 81.0001 230.3 81.5001 228.1 82.0001C220.8 83.6001 214.7 87.3001 209.2 92.1001C205.3 95.5001 202.1 99.2001 201.1 104.5C201 105.1 200.7 105.5 200.2 105.8C197 107.8 193.9 109.8 190.2 110.8C188.3 111.3 187.5 110.5 187.8 108.5C188 106.9 188.7 105.6 189.5 104.2C192.1 99.9001 195.4 96.2001 198.6 92.5001C201.7 88.9001 204.8 85.3001 208.1 81.4001C205.2 81.4001 202.8 81.3001 200.5 81.4001C197.8 81.5001 197.3 84.6001 195.2 85.6001C192.9 81.3001 189 80.2001 184.8 81.2001C172.2 84.2001 162.6 91.2001 157 103.2C156.7 103.8 156.7 104.6 155.6 104.6C153.2 104.5 150.8 104.6 148 104.6C150.7 101.7 152.7 98.7001 154.5 95.5001C161.2 83.3001 159.2 71.0001 149 62.2001C147.4 60.9001 145.7 59.7001 143.9 58.5001C150.3 54.4001 154.4 49.1001 155.2 41.5001C155.9 33.9001 152.9 27.7001 148.2 22.0001C150.3 20.7001 152.4 19.5001 154.4 18.3001C155 17.9001 156.1 17.6001 155.2 16.6001C154.6 15.9001 154.3 14.6001 152.8 15.6001C151.1 16.8001 149.1 17.7001 147.4 18.8001C146.3 19.5001 145.7 19.3001 144.7 18.5001C125.2 2.20006 102.6 -2.69994 78.2 1.40006C55.4 5.20006 38.7 18.8001 26.3 37.9001C25.9 38.6001 24.8 39.3001 26.3 40.2001C27.6 41.0001 28.1 40.7001 28.9 39.5001C33.4 32.3001 38.9 26.1001 45.4 20.6001C56.7 11.2001 69.7 5.20006 84.4 4.00006C98.6 2.90006 112.3 5.40006 125.2 11.6001C130.9 14.4001 136.1 18.0001 140.3 23.0001C139.8 23.3001 139.4 23.6001 139 23.9001C119.4 36.9001 103.1 53.2001 88.9 71.8001C77.6 86.8001 67.6 102.7 56.9 118C41.7 139.6 24.2 158.8 1.00002 172.1C0.300019 172.5 -0.499981 172.8 0.400019 173.8C1.10002 174.5 1.20002 175.7 2.70002 174.8C8.20002 171.6 13.5 168.2 18.6 164.4C37.1 150.8 52.2 133.9 65.9 115.7C77.7 100 89 84.0001 100.8 68.3001C111.5 54.1001 123.3 40.8001 137.3 29.7001C142.9 25.3001 143 25.3001 145.5 32.0001C148.7 40.3001 148.4 48.1001 141.9 54.9001C140.5 56.4001 139.2 56.7001 137.2 56.1001C132.6 54.5001 127.8 54.0001 123 55.0001C120.8 55.5001 118.9 56.7001 119 59.2001C119.1 61.5001 121 62.4001 122.9 62.9001C128 64.4001 132.9 62.8001 137.6 61.2001C139 60.7001 139.8 60.9001 140.9 61.7001C144.6 64.4001 147.1 67.9001 148.4 72.2001C149.9 77.0001 150 81.8001 149.3 86.7001C148.5 93.1001 146.4 98.9001 142.1 103.7C141.5 104.4 140.9 104.9 139.9 105C135.5 105.4 131.2 105.8 126.8 106.4C122 107.1 117.2 108.1 112.9 110.7C111.5 111.5 110 112.6 110.3 114.5C110.6 116.6 112.5 116.9 114.1 117.4C114.6 117.5 115.1 117.5 115.6 117.5C124.3 117.8 132.5 115.8 139.6 110.8C143.2 108.3 146.7 106.7 151 107.1C151.6 107.2 152.3 107.2 153 107.1C154.8 106.8 155.8 107.4 156.1 109.3C156.3 110.7 157.4 111.7 158.6 112.4C161.5 114 164.5 114.1 167.5 113C171.6 111.5 175.3 109.3 178.8 106.9C179.8 106.2 180.8 105.5 182 104.7C181.9 105.9 181.9 106.7 181.9 107.5C181.8 112.8 185.2 115.3 190.2 113.6C193.4 112.5 196.5 110.9 199.4 109.2C200.5 108.5 200.9 108.6 201.6 109.8C203.3 112.9 206.7 114.4 210.2 113.9C215 113.3 219.3 111.2 223.7 109.2C227.3 107.6 230.8 105.8 234.5 104C234.6 104.5 234.6 104.7 234.6 104.9C234.9 111.7 238.3 114.6 245 113.7C248.5 113.3 251.7 111.8 254.9 110.4C259.1 108.5 263.2 106.5 267.5 104.5C267.3 111.8 271.6 115.2 278.3 113.2C281.3 112.3 284 110.9 286.7 109.3C289.1 107.9 291.4 106.3 294 104.6C293.8 105.4 293.7 105.9 293.6 106.4C292.7 111.9 296.7 115.4 302 113.6C304.1 112.9 306 111.8 307.8 110.6C317.2 104.4 324.8 96.4001 331.9 87.8001C334.1 85.1001 335.9 84.7001 338.9 85.9001C340.4 86.5001 340.4 86.9001 339.5 88.0001C337.5 90.4001 335.5 92.7001 333.7 95.2001C330.7 99.3001 327.7 103.6 326.7 108.7C326.1 111.6 327.4 113.7 330.3 114.4C332.3 114.9 334.3 114.8 336.3 114C340.2 112.3 343.7 109.9 347.2 107.5C347.7 107.2 348 106.4 348.8 106.7C349.1 111 351.7 113.4 356.1 113.6C360 113.8 363.3 112 366.6 110.1C369.5 108.5 372.3 106.6 375.3 104.7C375.3 105.4 375.3 105.9 375.2 106.4C374.6 112.4 378.1 115.4 383.9 113.6C388.7 112.1 392.8 109.4 396.9 106.5C397.6 106 398.2 104.9 399.1 105.5C399.7 105.9 399.3 107 399.3 107.8C399.3 112.1 401.8 114.5 406.1 114.2C408 114.1 409.8 113.6 411.5 112.7C418.6 109 425 104.3 431.8 100.1C432.6 99.6001 432.9 99.0001 432.3 98.1001C431.7 97.2001 431 97.0001 430.1 97.6001C429.7 97.9001 429.3 98.2001 428.9 98.4001C423 102.4 417 106.1 410.8 109.5C409.6 110.2 408.3 110.7 406.9 110.7C405.4 110.7 404.7 110.2 404.7 108.5C404.6 106 406.1 104.2 407.5 102.4C415.9 91.7001 424.4 81.1001 432.8 70.4001C433.6 69.3001 434.5 68.9001 435.8 68.9001C440.1 69.0001 444.4 68.9001 448.8 69.0001C450.4 69.0001 451.6 68.6001 452.5 67.2001C453.1 67.1001 453.7 66.8001 453.5 66.1001ZM124.6 60.0001C124 60.0001 123.4 59.8001 123.4 59.1001C123.4 58.5001 124 58.3001 124.4 58.2001C128 57.5001 131.5 57.8001 135.6 59.1001C131.6 60.5001 128.1 60.3001 124.6 60.0001ZM116.8 114.5C116.3 114.5 115.7 114.5 115.7 113.9C115.7 113.3 116.3 113 116.8 112.8C119.6 111.5 122.6 110.9 125.6 110.2C129.3 109.4 133 108.9 136.8 108.7C130.8 112.7 124.1 114.6 116.8 114.5ZM170.7 109.1C169.3 109.8 167.9 110.4 166.4 110.8C163.9 111.5 162.7 110.2 163.1 107.6C163.5 105.7 164.3 104.1 165.4 102.6C170.3 95.7001 176.6 90.2001 184.2 86.3001C186.2 85.3001 187.6 85.0001 189.1 85.0001C192.2 85.0001 193.2 86.3001 192.2 89.3001C191.4 91.7001 190 93.6001 188.3 95.4001C183.3 101.1 177.3 105.6 170.7 109.1ZM281.5 109.6C280.3 110.2 279.1 110.6 277.9 110.9C275.8 111.4 274.8 110.5 274.9 108.3C274.9 107.1 275.3 106 275.9 105.1C281.1 96.3001 288.4 90.0001 297.6 85.8001C298.3 85.5001 299.1 85.3001 299.9 85.2001C303.9 84.7001 305.3 86.5001 303.8 90.2001C302.7 93.0001 300.8 95.2001 298.7 97.3001C293.6 102.2 287.9 106.4 281.5 109.6ZM334.5 80.6001C334.2 81.0001 333.8 80.7001 333.4 80.5001C332.7 80.0001 332.3 79.3001 332.5 78.3001C332.7 76.0001 335.3 73.0001 337.5 72.4001C338.6 72.1001 339.4 72.3001 339.1 73.6001C338.4 76.5001 336.1 78.4001 334.5 80.6001ZM361.6 110.1C360.1 110.8 358.4 111.9 356.9 110.4C355.4 108.9 356.2 106.9 357.1 105.4C362.4 96.2001 369.9 89.5001 379.8 85.5001C380.6 85.2001 381.5 85.0001 382.3 85.1001C385.4 85.1001 386.4 86.5001 385.5 89.3001C384.9 91.0001 384 92.5001 382.9 93.9001C377 101 369.8 106.3 361.6 110.1Z" fill="white"/>
<path d="M216.8 140.3V149.1H214.6V129.6H216.8V138.2H228V129.6H230.2V149.1H228V140.3H216.8Z" fill="white"/>
<path d="M244 149.4C238.1 149.4 234.1 144.8 234.1 139.4C234.1 134 238.1 129.3 244.1 129.3C250 129.3 254 133.9 254 139.3C254 144.7 250 149.4 244 149.4ZM244 131.3C239.6 131.3 236.4 134.9 236.4 139.3C236.4 143.7 239.6 147.4 244.1 147.4C248.6 147.4 251.7 143.8 251.7 139.4C251.7 134.9 248.5 131.3 244 131.3Z" fill="white"/>
<path d="M264 149.1H261.8V131.7H255.3V129.7H270.6V131.7H264V149.1Z" fill="white"/>
<path d="M288 131.6H276.1V138.2H286.7V140.2H276.1V147H288.1V149H273.9V129.5H288V131.6Z" fill="white"/>
<path d="M291.9 129.6H294.1V147H305.1V149H292V129.6H291.9Z" fill="white"/>
<path d="M217.1 171.2H218.6V184.7H217.4L208.7 173.7V184.7H207.2V171.2H208.6L217.1 182V171.2V171.2Z" fill="white"/>
<path d="M231.7 172.6H223.5V177.2H230.8V178.6H223.5V183.3H231.8V184.7H222V171.2H231.7V172.6Z" fill="white"/>
<path d="M242.5 171.1H243.8L247.5 182.4L251.3 171.2H252.9L248.1 184.8H246.8L243.1 173.9L239.4 184.8H238.1L233.3 171.2H235L238.8 182.4L242.5 171.1Z" fill="white"/>
<path d="M266.2 184.6H264.7V179.3L259.1 171.2H260.9L265.4 177.9L270 171.2H271.8L266.2 179.3V184.6Z" fill="white"/>
<path d="M278.8 184.9C274.7 184.9 272 181.7 272 178C272 174.3 274.8 171 278.9 171C283 171 285.7 174.2 285.7 177.9C285.7 181.6 282.9 184.9 278.8 184.9ZM278.8 172.4C275.7 172.4 273.5 174.9 273.5 177.9C273.5 181 275.7 183.5 278.8 183.5C281.9 183.5 284.1 181 284.1 178C284.1 174.9 281.9 172.4 278.8 172.4Z" fill="white"/>
<path d="M297.7 184.6L293.8 179.4H290V184.6H288.5V171.1H294.3C297.3 171.1 299.2 172.7 299.2 175.1C299.2 177.3 297.7 178.7 295.5 179L299.6 184.5H297.7V184.6ZM294.1 172.6H289.9V178.1H294C296 178.1 297.5 177.1 297.5 175.3C297.5 173.6 296.3 172.6 294.1 172.6Z" fill="white"/>
<path d="M313.3 184.6H311.4L306.2 178.1L303.3 181V184.6H301.8V171.1H303.3V179.1L311 171.1H313L307.2 177L313.3 184.6Z" fill="white"/>
<path d="M327.2 159.3H192.6V160.8H327.2V159.3Z" fill="white"/>
</g>
<defs>
<clipPath id="clip0">
<rect width="453.5" height="184.9" fill="white"/>
</clipPath>
</defs>
</svg>
