<svg xmlns="http://www.w3.org/2000/svg" xmlns:xlink="http://www.w3.org/1999/xlink" version="1.1" x="0px" y="0px" viewBox="0 0 300 375" enable-background="new 0 0 300 300" xml:space="preserve"><g><path fill="#000000" d="M148.121,260.403c6.578-6.581,6.578-17.251,0-23.831l-69.426-69.427h182.421   c9.308,0,16.852-7.546,16.852-16.851c0-9.307-7.544-16.851-16.852-16.851l-182.498,0l71.01-71.011   c6.578-6.58,6.578-17.251,0-23.831c-6.582-6.58-17.25-6.58-23.83,0l-96.609,96.611c-0.499,0.499-0.95,1.03-1.371,1.573   c-4.126,3.068-6.811,7.97-6.811,13.508c0,5.367,2.519,10.139,6.43,13.224c0.085,0.092,0.16,0.186,0.249,0.275l96.609,96.609   C130.87,266.98,141.542,266.98,148.121,260.403z"/></g><text x="0" y="315" fill="#000000" font-size="5px" font-weight="bold" font-family="'Helvetica Neue', Helvetica, Arial-Unicode, Arial, Sans-serif">Created by Joe Mortell</text><text x="0" y="320" fill="#000000" font-size="5px" font-weight="bold" font-family="'Helvetica Neue', Helvetica, Arial-Unicode, Arial, Sans-serif">from the Noun Project</text></svg>