<svg xmlns="http://www.w3.org/2000/svg" width="118" height="34" viewBox="0 0 118 34">
    <defs>
        <linearGradient id="jz9t8cblfa" x1="100%" x2="0%" y1="50%" y2="50%">
            <stop offset="0%" stop-color="#FAD961"/>
            <stop offset="100%" stop-color="#F99B1B"/>
        </linearGradient>
        <linearGradient id="n0e5uenjcb" x1="80.745%" x2="-55.661%" y1="26.651%" y2="131.799%">
            <stop offset="0%" stop-color="#EE4547"/>
            <stop offset="100%" stop-color="#C71A6D"/>
        </linearGradient>
        <linearGradient id="1wrmjlhscc" x1="-56.27%" x2="55.103%" y1="-32.255%" y2="53.583%">
            <stop offset="0%" stop-color="#73C169"/>
            <stop offset="100%" stop-color="#289E6F"/>
        </linearGradient>
    </defs>
    <g fill="none" fill-rule="evenodd">
        <path fill="#010202" d="M113.63 34H4.372C1.967 34 0 32.087 0 29.749V4.25C0 1.913 1.967 0 4.372 0H113.63c2.403 0 4.37 1.913 4.37 4.251V29.75c0 2.338-1.967 4.251-4.37 4.251"/>
        <g fill="#FEFEFE">
            <path d="M5.882 3.8c0 .738-.221 1.33-.66 1.768-.499.523-1.147.784-1.947.784-.764 0-1.416-.264-1.95-.795-.535-.53-.802-1.19-.802-1.974s.267-1.441.802-1.972c.534-.53 1.186-.794 1.95-.794.38 0 .744.074 1.088.22.345.15.621.346.83.593l-.466.467c-.351-.42-.835-.628-1.452-.628-.557 0-1.04.194-1.445.588-.407.393-.613.902-.613 1.526 0 .627.206 1.136.613 1.53.405.392.888.587 1.445.587.593 0 1.087-.197 1.482-.591.255-.258.403-.614.443-1.073H3.275V3.4h2.57c.023.137.037.27.037.398" transform="translate(36 5.248)"/>
            <path d="M5.882 3.8h-.089c-.002.723-.212 1.284-.633 1.705l-.002.002c-.481.504-1.102.756-1.883.756-.745 0-1.367-.253-1.887-.768-.52-.517-.776-1.146-.776-1.912 0-.763.256-1.393.776-1.91.52-.514 1.142-.768 1.887-.768.368 0 .72.072 1.052.214.336.144.6.332.796.569l.07-.058-.064-.062-.465.466.063.063.066-.058c-.365-.44-.882-.66-1.518-.659-.578-.002-1.087.205-1.508.612-.424.409-.638.946-.637 1.591-.001.647.213 1.185.637 1.594.42.406.93.613 1.508.613.612 0 1.132-.207 1.544-.619.273-.274.43-.654.47-1.127l.007-.097H3.363v-.46h2.482v-.086l-.088.014c.022.134.036.26.036.384h.177c0-.134-.013-.273-.04-.416l-.012-.07H3.186v.811H5.2v-.088l-.087-.007c-.04.443-.183.779-.42 1.017-.378.38-.846.565-1.418.567-.538-.002-.992-.186-1.386-.563-.39-.378-.583-.858-.583-1.467 0-.606.193-1.086.583-1.464.394-.377.848-.563 1.386-.563.6.001 1.048.2 1.384.598l.061.073.536-.534.057-.057-.052-.063c-.218-.26-.508-.463-.864-.616-.355-.153-.73-.23-1.122-.23-.785 0-1.463.276-2.01.823C.71 2.095.432 2.78.432 3.583c0 .806.278 1.49.831 2.037.548.546 1.226.823 2.01.82.82.003 1.496-.27 2.013-.811l-.064-.061.062.062c.458-.457.685-1.074.685-1.83h-.088M9.951 1.585L7.537 1.585 7.537 3.265 9.713 3.265 9.713 3.902 7.537 3.902 7.537 5.584 9.951 5.584 9.951 6.234 6.859 6.234 6.859.935 9.951.935z" transform="translate(36 5.248)"/>
            <path d="M9.951 1.585L9.951 1.497 7.45 1.497 7.45 3.354 9.626 3.354 9.626 3.813 7.45 3.813 7.45 5.672 9.862 5.672 9.862 6.145 6.946 6.145 6.946 1.024 9.862 1.024 9.862 1.585 9.951 1.585 9.951 1.497 9.951 1.585 10.04 1.585 10.04.846 6.77.846 6.77 6.323 10.04 6.323 10.04 5.495 7.626 5.495 7.626 3.991 9.802 3.991 9.802 3.178 7.626 3.178 7.626 1.674 10.04 1.674 10.04 1.585zM12.823 6.234L12.14 6.234 12.14 1.585 10.661 1.585 10.661.935 14.303.935 14.303 1.585 12.823 1.585z" transform="translate(36 5.248)"/>
            <path d="M12.823 6.234L12.823 6.145 12.228 6.145 12.228 1.496 10.75 1.496 10.75 1.023 14.216 1.023 14.216 1.496 12.734 1.496 12.734 6.234 12.823 6.234 12.823 6.145 12.823 6.234 12.912 6.234 12.912 1.674 14.39 1.674 14.39.846 10.573.846 10.573 1.674 12.054 1.674 12.054 6.322 12.912 6.322 12.912 6.234zM16.937 6.235L17.619 6.235 17.619.936 16.937.936z" transform="translate(36 5.248)"/>
            <path d="M16.938 6.234L17.027 6.234 17.027 1.023 17.53 1.023 17.53 6.145 16.938 6.145 16.938 6.234 17.027 6.234 16.938 6.234 16.938 6.322 17.707 6.322 17.707.846 16.85.846 16.85 6.322 16.938 6.322zM20.639 6.234L19.957 6.234 19.957 1.585 18.477 1.585 18.477.935 22.119.935 22.119 1.585 20.639 1.585z" transform="translate(36 5.248)"/>
            <path d="M20.639 6.234L20.639 6.145 20.046 6.145 20.046 1.496 18.566 1.496 18.566 1.023 22.03 1.023 22.03 1.496 20.55 1.496 20.55 6.234 20.639 6.234 20.639 6.145 20.639 6.234 20.728 6.234 20.728 1.674 22.206 1.674 22.206.846 18.389.846 18.389 1.674 19.87 1.674 19.87 6.322 20.728 6.322 20.728 6.234zM25.629 5.105c.393.398.873.595 1.44.595s1.048-.197 1.438-.595c.395-.398.591-.904.591-1.522 0-.615-.196-1.123-.591-1.52-.39-.398-.871-.594-1.438-.594s-1.047.196-1.44.594c-.392.397-.588.905-.588 1.52 0 .618.196 1.124.588 1.522m3.382.444c-.52.535-1.17.803-1.942.803-.776 0-1.421-.268-1.943-.803-.52-.534-.779-1.19-.779-1.966 0-.773.26-1.43.78-1.963.52-.537 1.166-.803 1.942-.803.77 0 1.417.267 1.937.806.524.538.786 1.192.786 1.96 0 .776-.26 1.432-.78 1.966" transform="translate(36 5.248)"/>
            <path d="M25.629 5.105l-.063.063c.407.412.913.622 1.503.622.588 0 1.095-.21 1.502-.622.409-.414.616-.948.616-1.585 0-.634-.207-1.168-.616-1.582-.407-.412-.914-.623-1.502-.621-.59-.002-1.096.209-1.503.62-.409.415-.614.949-.614 1.583 0 .637.205 1.17.614 1.585l.127-.125c-.376-.38-.563-.861-.563-1.46 0-.596.187-1.078.563-1.457h-.002c.38-.383.832-.569 1.378-.57.548.001 1 .187 1.377.57.374.381.56.861.564 1.457-.004.599-.19 1.079-.564 1.46-.377.382-.83.57-1.377.57-.546-.002-.999-.188-1.378-.57l-.062.062zm3.382.444l-.062-.061c-.506.52-1.126.775-1.88.775-.755 0-1.374-.255-1.879-.775l-.003-.004.003.004c-.506-.52-.756-1.148-.756-1.905 0-.754.25-1.382.756-1.902.505-.52 1.124-.776 1.879-.776.75 0 1.367.258 1.876.78.506.521.758 1.149.758 1.898 0 .757-.25 1.385-.754 1.905l.125.123c.537-.55.807-1.233.805-2.028.002-.79-.27-1.47-.809-2.022-.535-.553-1.212-.835-2.001-.833-.797-.002-1.472.278-2.006.83-.537.55-.806 1.232-.805 2.025-.001.795.268 1.479.805 2.028l.004.002-.004-.002c.534.552 1.21.832 2.006.83.793.002 1.471-.278 2.005-.83l-.063-.062zM30.748 6.234L30.748.935 31.579.935 34.153 5.056 34.182 5.056 34.153 4.035 34.153.935 34.835.935 34.835 6.234 34.122 6.234 31.429 1.912 31.398 1.912 31.429 2.935 31.429 6.234z" transform="translate(36 5.248)"/>
            <path d="M30.748 6.234L30.836 6.234 30.836 1.023 31.527 1.023 34.102 5.147 34.271 5.147 34.242 4.034 34.242 1.023 34.746 1.023 34.746 6.145 34.174 6.145 31.476 1.823 31.309 1.823 31.341 2.935 31.341 6.145 30.748 6.145 30.748 6.234 30.836 6.234 30.748 6.234 30.748 6.322 31.516 6.322 31.516 2.931 31.487 1.91 31.398 1.912 31.398 1.999 31.429 1.999 31.429 1.912 31.355 1.959 34.075 6.322 34.922 6.322 34.922.846 34.064.846 34.064 4.037 34.094 5.06 34.182 5.056 34.182 4.969 34.153 4.969 34.153 5.056 34.228 5.011 31.626.846 30.659.846 30.659 6.322 30.748 6.322zM58.447 21.249h1.647V10.207h-1.647v11.042zm14.843-7.065l-1.888 4.788h-.058l-1.96-4.788h-1.777l2.943 6.69-1.679 3.723h1.72l4.532-10.413H73.29zm-9.346 5.81c-.542 0-1.292-.269-1.292-.937 0-.852.938-1.179 1.746-1.179.725 0 1.066.157 1.506.369-.128 1.023-1.008 1.748-1.96 1.748zm.199-6.05c-1.193 0-2.428.526-2.94 1.689l1.461.61c.313-.61.894-.81 1.506-.81.853 0 1.719.513 1.734 1.423v.113c-.299-.17-.937-.426-1.72-.426-1.577 0-3.18.866-3.18 2.485 0 1.478 1.292 2.43 2.742 2.43 1.106 0 1.718-.498 2.103-1.08h.055v.852h1.592v-4.233c0-1.96-1.465-3.053-3.353-3.053zM53.958 15.53h-2.344v-3.785h2.344c1.232 0 1.93 1.02 1.93 1.893 0 .855-.698 1.892-1.93 1.892zm-.043-5.322h-3.948v11.042h1.647v-4.185h2.3c1.829 0 3.622-1.321 3.622-3.427 0-2.108-1.793-3.43-3.621-3.43zm-21.534 9.79c-1.138 0-2.09-.954-2.09-2.263 0-1.324.952-2.29 2.09-2.29 1.125 0 2.007.966 2.007 2.29 0 1.31-.882 2.263-2.007 2.263zm1.892-5.194h-.056c-.37-.441-1.08-.84-1.977-.84-1.878 0-3.6 1.65-3.6 3.77 0 2.107 1.722 3.744 3.6 3.744.897 0 1.607-.399 1.977-.854h.056v.539c0 1.438-.767 2.207-2.005 2.207-1.01 0-1.637-.727-1.892-1.338l-1.437.599c.41.994 1.508 2.219 3.329 2.219 1.935 0 3.572-1.14 3.572-3.913V14.19h-1.567v.612zm2.706 6.446h1.65V10.207h-1.65v11.042zm4.084-3.644c-.046-1.45 1.123-2.19 1.961-2.19.656 0 1.21.326 1.393.797l-3.354 1.393zm5.121-1.252c-.313-.838-1.267-2.39-3.217-2.39-1.934 0-3.543 1.522-3.543 3.757 0 2.104 1.593 3.757 3.729 3.757 1.722 0 2.718-1.053 3.13-1.665l-1.281-.855c-.425.627-1.009 1.04-1.849 1.04-.84 0-1.436-.385-1.823-1.138l5.025-2.078-.17-.428zM6.167 15.117v1.593h3.814c-.115.895-.412 1.55-.868 2.007-.555.554-1.424 1.165-2.946 1.165-2.348 0-4.183-1.892-4.183-4.239 0-2.35 1.835-4.241 4.183-4.241 1.268 0 2.193.499 2.875 1.139l1.125-1.125c-.955-.91-2.22-1.607-4-1.607-3.216 0-5.918 2.617-5.918 5.834 0 3.216 2.702 5.834 5.918 5.834 1.736 0 3.045-.57 4.07-1.637 1.052-1.054 1.38-2.532 1.38-3.729 0-.37-.03-.711-.085-.994H6.167zm9.786 4.88c-1.137 0-2.122-.94-2.122-2.277 0-1.351.985-2.277 2.122-2.277s2.12.926 2.12 2.277c0 1.337-.983 2.277-2.12 2.277zm0-6.034c-2.078 0-3.772 1.58-3.772 3.757 0 2.162 1.694 3.757 3.772 3.757 2.077 0 3.77-1.595 3.77-3.757 0-2.177-1.693-3.757-3.77-3.757zm8.226 6.034c-1.139 0-2.122-.94-2.122-2.277 0-1.351.983-2.277 2.122-2.277 1.138 0 2.117.926 2.117 2.277 0 1.337-.98 2.277-2.117 2.277zm0-6.034c-2.078 0-3.77 1.58-3.77 3.757 0 2.162 1.692 3.757 3.77 3.757 2.077 0 3.769-1.595 3.769-3.757 0-2.177-1.692-3.757-3.769-3.757z" transform="translate(36 5.248)"/>
        </g>
        <g>
            <path fill="#5AC8F2" d="M.407.35C.15.622 0 1.042 0 1.59v19.517c0 .548.15.968.407 1.24l.064.064 10.934-10.934v-.257L.471.286.407.35" transform="translate(8.811 6.316)"/>
            <path fill="url(#jz9t8cblfa)" d="M11.406 11.22v.258l3.643 3.645.082-.048 4.32-2.452c1.233-.703 1.233-1.847 0-2.55l-4.4-2.5-3.645 3.646z" transform="translate(8.811 6.316)"/>
            <path fill="url(#n0e5uenjcb)" d="M.407 22.346c.406.431 1.079.484 1.835.056l12.889-7.327-3.725-3.727L.407 22.346z" transform="translate(8.811 6.316)"/>
            <path fill="url(#1wrmjlhscc)" d="M.407.351l10.999 10.997L15.13 7.62 2.242.296C1.89.096 1.552 0 1.252 0 .914 0 .624.122.408.351" transform="translate(8.811 6.316)"/>
        </g>
    </g>
</svg>
