<svg xmlns="http://www.w3.org/2000/svg" width="118" height="34" viewBox="0 0 118 34">
    <g fill="none" fill-rule="evenodd">
        <path fill="#000" d="M117.591 30.362c0 1.87-1.513 3.382-3.386 3.382H3.391C1.52 33.744 0 32.231 0 30.362V3.386C0 1.518 1.52 0 3.391 0h110.814c1.873 0 3.386 1.518 3.386 3.386v26.976z"/>
        <path fill="#FEFEFE" d="M25.823 16.686c-.026-2.847 2.33-4.23 2.439-4.295-1.334-1.946-3.404-2.212-4.13-2.233-1.738-.181-3.422 1.04-4.307 1.04-.904 0-2.266-1.021-3.734-.992-1.89.03-3.659 1.124-4.63 2.821-2 3.466-.507 8.557 1.411 11.359.958 1.372 2.078 2.904 3.546 2.848 1.435-.059 1.972-.915 3.704-.915 1.715 0 2.218.915 3.713.88 1.541-.024 2.512-1.377 3.437-2.761 1.11-1.57 1.555-3.12 1.57-3.2-.034-.012-2.99-1.14-3.019-4.552M22.997 8.315c.77-.965 1.3-2.278 1.153-3.61-1.116.048-2.515.772-3.318 1.716-.711.833-1.35 2.197-1.184 3.478 1.255.094 2.542-.633 3.35-1.584M43.159 22.137l-.993-3.068c-.107-.313-.305-1.052-.595-2.214h-.035c-.117.499-.3 1.238-.558 2.214l-.976 3.068h3.157zm3.434 4.9h-2.005l-1.099-3.452h-3.82l-1.044 3.452h-1.953l3.782-11.75h2.338l3.801 11.75zM54.405 22.765c0-.824-.184-1.504-.556-2.04-.409-.558-.955-.837-1.64-.837-.465 0-.886.155-1.265.461-.377.31-.626.713-.74 1.214-.058.231-.09.424-.09.574v1.412c0 .618.192 1.138.568 1.562.379.424.87.636 1.475.636.707 0 1.262-.273 1.655-.819.397-.546.593-1.267.593-2.163m1.92-.07c0 1.442-.391 2.581-1.168 3.42-.7.744-1.566 1.114-2.599 1.114-1.116 0-1.92-.4-2.407-1.203h-.036v4.464h-1.882v-9.137c0-.906-.024-1.835-.071-2.79h1.657l.104 1.343h.035c.63-1.012 1.583-1.519 2.861-1.519 1 0 1.835.397 2.501 1.187.67.79 1.005 1.833 1.005 3.121M64.154 22.765c0-.824-.186-1.504-.558-2.04-.409-.558-.953-.837-1.64-.837-.465 0-.886.155-1.265.461-.377.31-.624.713-.74 1.214-.058.231-.088.424-.088.574v1.412c0 .618.19 1.138.566 1.562.377.424.87.636 1.474.636.71 0 1.263-.273 1.656-.819.397-.546.595-1.267.595-2.163m1.918-.07c0 1.442-.39 2.581-1.169 3.42-.699.744-1.565 1.114-2.598 1.114-1.116 0-1.918-.4-2.407-1.203h-.035v4.464H57.98v-9.137c0-.906-.023-1.835-.07-2.79h1.656l.106 1.343h.035c.628-1.012 1.58-1.519 2.86-1.519.997 0 1.834.397 2.502 1.187.668.79 1.003 1.833 1.003 3.121M76.97 23.743c0 .998-.346 1.812-1.044 2.44-.765.687-1.831 1.03-3.2 1.03-1.266 0-2.28-.246-3.047-.734l.437-1.569c.826.501 1.734.751 2.722.751.707 0 1.26-.161 1.657-.481.395-.319.591-.748.591-1.284 0-.478-.161-.88-.487-1.205-.325-.325-.866-.63-1.622-.91-2.058-.767-3.086-1.892-3.086-3.368 0-.967.36-1.76 1.082-2.378.718-.615 1.678-.925 2.877-.925 1.07 0 1.958.186 2.666.557l-.47 1.535c-.662-.36-1.412-.539-2.248-.539-.663 0-1.181.162-1.553.487-.312.29-.47.645-.47 1.064 0 .465.18.85.54 1.15.314.282.883.58 1.71.908 1.01.407 1.753.883 2.232 1.43.474.547.713 1.227.713 2.041M83.196 19.976h-2.075v4.115c0 1.047.365 1.57 1.098 1.57.337 0 .617-.03.838-.087l.05 1.43c-.37.137-.859.209-1.464.209-.743 0-1.324-.228-1.744-.68-.418-.454-.628-1.216-.628-2.286v-4.27h-1.237v-1.413h1.237v-1.553l1.85-.557v2.11h2.075v1.412zM90.606 22.792c0-.78-.167-1.452-.504-2.01-.397-.679-.96-1.016-1.693-1.016-.756 0-1.33.337-1.725 1.016-.337.558-.506 1.24-.506 2.047 0 .78.169 1.448.506 2.008.407.677.978 1.016 1.71 1.016.72 0 1.283-.344 1.69-1.033.348-.57.522-1.249.522-2.028m1.955-.06c0 1.302-.372 2.37-1.117 3.208-.779.86-1.815 1.29-3.104 1.29-1.245 0-2.235-.414-2.972-1.238-.74-.826-1.106-1.866-1.106-3.122 0-1.313.377-2.39 1.14-3.226.76-.836 1.787-1.255 3.077-1.255 1.243 0 2.243.412 3 1.24.722.801 1.082 1.834 1.082 3.102M98.682 20.22c-.186-.036-.386-.053-.595-.053-.663 0-1.174.25-1.536.75-.311.441-.47 1.001-.47 1.674v4.447H94.2l.017-5.807c0-.975-.024-1.866-.07-2.668h1.64l.069 1.621h.05c.2-.556.513-1.005.943-1.342.42-.303.873-.454 1.361-.454.174 0 .33.012.472.036v1.795zM105.307 21.91c.012-.556-.11-1.04-.365-1.446-.325-.524-.828-.785-1.501-.785-.617 0-1.116.254-1.5.767-.312.409-.5.896-.557 1.465h3.923zm1.795.49c0 .337-.021.622-.068.853h-5.65c.022.838.295 1.477.82 1.92.475.395 1.093.592 1.847.592.837 0 1.599-.133 2.286-.402l.295 1.308c-.801.35-1.75.523-2.841.523-1.315 0-2.346-.386-3.096-1.16-.75-.772-1.125-1.81-1.125-3.111 0-1.278.348-2.345 1.047-3.192.732-.906 1.72-1.36 2.963-1.36 1.221 0 2.146.454 2.774 1.36.5.72.748 1.61.748 2.668zM41.559 8.08c0-.676-.18-1.192-.536-1.552-.356-.36-.876-.54-1.563-.54-.293 0-.541.022-.746.062v4.316c.114.017.323.026.627.026.708 0 1.253-.196 1.639-.591.386-.393.579-.967.579-1.722m.977-.026c0 1.04-.311 1.823-.935 2.348-.578.485-1.395.729-2.458.729-.525 0-.977-.025-1.355-.068V5.38c.493-.08 1.023-.118 1.595-.118 1.01 0 1.774.219 2.287.659.577.496.866 1.207.866 2.132M46.749 8.991c0-.384-.082-.713-.249-.986-.193-.334-.47-.5-.83-.5-.371 0-.653.166-.848.5-.165.273-.249.609-.249 1.004 0 .384.084.713.25.987.2.334.48.5.84.5.352 0 .629-.17.83-.508.17-.28.256-.613.256-.997m.962-.03c0 .64-.185 1.166-.55 1.578-.382.423-.89.633-1.525.633-.61 0-1.097-.202-1.46-.609-.363-.405-.543-.916-.543-1.534 0-.645.184-1.172.56-1.584.373-.41.878-.616 1.51-.616.613 0 1.103.202 1.476.607.353.395.532.903.532 1.526M54.648 6.914l-1.303 4.165h-.847l-.54-1.81c-.138-.449-.247-.898-.334-1.344h-.016c-.082.457-.191.906-.334 1.344l-.576 1.81h-.857l-1.224-4.165h.951l.471 1.98c.113.467.209.912.284 1.335h.015c.07-.348.183-.791.345-1.327l.591-1.988h.751l.567 1.944c.136.475.249.93.334 1.37h.025c.064-.427.158-.884.285-1.37l.504-1.944h.908zM59.446 11.078h-.925V8.694c0-.736-.279-1.103-.84-1.103-.273 0-.496.101-.666.303-.173.202-.26.44-.26.713v2.471h-.925V8.105c0-.366-.01-.762-.033-1.192h.814l.044.65h.024c.11-.201.268-.366.482-.502.248-.153.528-.231.838-.231.39 0 .711.125.969.375.318.308.478.77.478 1.38v2.493zM61.075 11.079L61.998 11.079 61.998 5.004 61.075 5.004zM66.487 8.991c0-.384-.083-.713-.248-.986-.193-.334-.47-.5-.83-.5-.372 0-.655.166-.847.5-.167.273-.25.609-.25 1.004 0 .384.083.713.25.987.199.334.479.5.839.5.353 0 .63-.17.83-.508.171-.28.256-.613.256-.997m.962-.03c0 .64-.184 1.166-.55 1.578-.382.423-.89.633-1.525.633-.612 0-1.097-.202-1.459-.609-.363-.405-.544-.916-.544-1.534 0-.645.184-1.172.56-1.584.374-.41.878-.616 1.511-.616.612 0 1.103.202 1.475.607.353.395.532.903.532 1.526M70.968 9.647v-.642c-1.021-.017-1.533.263-1.533.838 0 .218.058.381.18.49.118.109.27.162.45.162.204 0 .393-.064.567-.193.172-.128.28-.292.32-.492.01-.047.016-.1.016-.163m.961 1.431h-.833l-.07-.48h-.024c-.285.383-.69.574-1.217.574-.393 0-.71-.125-.951-.377-.218-.228-.325-.512-.325-.847 0-.51.212-.898.638-1.166.426-.267 1.026-.401 1.796-.394v-.079c0-.547-.288-.82-.864-.82-.41 0-.772.102-1.085.31l-.188-.61c.386-.241.864-.36 1.428-.36 1.088 0 1.635.574 1.635 1.722v1.534c0 .416.019.748.06.993M76.23 9.322v-.694c0-.121-.01-.217-.029-.292-.05-.222-.161-.41-.334-.562-.172-.15-.379-.227-.617-.227-.346 0-.617.139-.816.412-.196.275-.295.626-.295 1.054 0 .412.094.746.283 1.001.2.275.47.413.81.413.303 0 .547-.115.731-.343.178-.212.266-.466.266-.762m.958 1.757h-.82l-.044-.67h-.026c-.26.508-.708.762-1.336.762-.504 0-.92-.197-1.25-.59-.332-.394-.497-.906-.497-1.534 0-.674.179-1.219.539-1.636.348-.388.775-.583 1.285-.583.56 0 .95.19 1.172.567h.02V5.004h.924v4.951c0 .407.01.78.033 1.124M84.145 8.991c0-.384-.083-.713-.25-.986-.193-.334-.47-.5-.83-.5-.372 0-.654.166-.848.5-.166.273-.249.609-.249 1.004 0 .384.083.713.249.987.2.334.478.5.84.5.353 0 .63-.17.831-.508.17-.28.257-.613.257-.997m.959-.03c0 .64-.183 1.166-.55 1.578-.38.423-.889.633-1.525.633-.609 0-1.096-.202-1.46-.609-.361-.405-.544-.916-.544-1.534 0-.645.186-1.172.56-1.584.376-.41.879-.616 1.513-.616.613 0 1.103.202 1.473.607.355.395.533.903.533 1.526M90.081 11.078h-.925V8.694c0-.736-.278-1.103-.84-1.103-.275 0-.497.101-.668.303-.17.202-.257.44-.257.713v2.471h-.925V8.105c0-.366-.01-.762-.035-1.192h.814l.043.65h.025c.11-.201.27-.366.481-.502.25-.153.53-.231.839-.231.39 0 .71.125.968.375.32.308.48.77.48 1.38v2.493zM96.309 7.609h-1.02v2.02c0 .515.184.771.542.771.163 0 .3-.012.412-.042l.024.703c-.184.068-.424.102-.72.102-.365 0-.65-.113-.857-.333-.205-.223-.306-.597-.306-1.122v-2.1h-.61v-.693h.61V6.15l.906-.273v1.037h1.019v.694zM101.21 11.078h-.926V8.711c0-.747-.279-1.12-.839-1.12-.43 0-.723.216-.881.65-.03.091-.046.2-.046.333v2.504h-.923V5.004h.923v2.51h.018c.292-.458.71-.684 1.252-.684.38 0 .7.125.951.375.313.315.472.781.472 1.397v2.476zM105.382 8.56c.007-.275-.054-.513-.181-.711-.158-.258-.405-.387-.736-.387-.3 0-.55.126-.735.378-.155.2-.247.44-.275.72h1.927zm.883.24c0 .163-.012.304-.036.419h-2.774c.01.41.144.725.402.943.234.193.539.29.91.29.41 0 .783-.064 1.12-.197l.147.644c-.397.17-.86.256-1.398.256-.646 0-1.153-.19-1.52-.57-.369-.38-.552-.89-.552-1.53 0-.627.17-1.15.515-1.566.358-.446.842-.668 1.456-.668.596 0 1.052.222 1.36.668.247.354.37.79.37 1.31z"/>
    </g>
</svg>
