<svg xmlns="http://www.w3.org/2000/svg" width="16" height="16" viewBox="0 0 16 16">
    <g fill="none" fill-rule="evenodd">
        <path d="M0 0h16v16H0z"/>
        <path fill="#000" fill-rule="nonzero" stroke="#000" stroke-width=".5" d="M8 1a7 7 0 1 0 0 14A7 7 0 0 0 8 1zm6.3 6.65h-2.1c-.066-2.32-.777-4.312-1.851-5.495A6.3 6.3 0 0 1 14.3 7.65zM7.65 1.732V7.65H4.5c.105-3.101 1.449-5.6 3.15-5.918zm0 6.618v5.918c-1.701-.304-3.045-2.8-3.15-5.918h3.15zm.7 5.918V8.35h3.15c-.105 3.101-1.449 5.6-3.15 5.918zm0-6.618V1.732c1.701.318 3.045 2.817 3.15 5.918H8.35zM5.662 2.155C4.584 3.338 3.877 5.33 3.8 7.65H1.7a6.3 6.3 0 0 1 3.962-5.495zM1.718 8.35h2.1c.066 2.32.773 4.312 1.851 5.495A6.3 6.3 0 0 1 1.718 8.35zm8.62 5.495c1.075-1.183 1.785-3.175 1.852-5.495h2.1a6.3 6.3 0 0 1-3.952 5.495z"/>
    </g>
</svg>
