<svg xmlns="http://www.w3.org/2000/svg" width="48" height="48" viewBox="0 0 48 48">
    <g fill="none" fill-rule="evenodd">
        <g>
            <g>
                <g>
                    <g>
                        <path fill="#000" d="M6.5 0C10.09 0 13 2.91 13 6.5S10.09 13 6.5 13 0 10.09 0 6.5 2.91 0 6.5 0zm0 1.733c-2.633 0-4.767 2.134-4.767 4.767 0 2.633 2.134 4.767 4.767 4.767 2.633 0 4.767-2.134 4.767-4.767 0-2.633-2.134-4.767-4.767-4.767z" transform="translate(-526 -628) translate(526 628) translate(21 21)"/>
                        <path stroke="#000" stroke-linecap="round" stroke-linejoin="round" stroke-width="1.8" d="M12.7 12.7L10.45 10.45" transform="translate(-526 -628) translate(526 628) translate(21 21)"/>
                        <path fill="#FFF" stroke="#000" stroke-width="1.8" d="M11.954 13.227l1.273-1.273c.352-.351.922-.351 1.273 0l3.818 3.819c.352.351.352.921 0 1.273l-1.272 1.272c-.352.352-.922.352-1.273 0L11.954 14.5c-.351-.351-.351-.921 0-1.273z" transform="translate(-526 -628) translate(526 628) translate(21 21)"/>
                    </g>
                    <path stroke="#000" stroke-linecap="round" stroke-width="2" d="M26.552 37H11.793c-.99 0-1.793-.772-1.793-1.724V13.724c0-.952.803-1.724 1.793-1.724h22.414c.99 0 1.793.772 1.793 1.724v10.55" transform="translate(-526 -628) translate(526 628)"/>
                </g>
            </g>
        </g>
    </g>
</svg>
