<svg xmlns="http://www.w3.org/2000/svg" width="24" height="24" viewBox="0 0 24 24">
  <g fill="none" fill-rule="evenodd">
    <g>
      <path d="M0 0H24V24H0z" transform="translate(-1531 -397) translate(1220 124) translate(0 54) translate(0 124) translate(45 95) translate(266)"/>
      <path fill="#000" d="M12 3c2.761 0 5 2.239 5 5s-2.239 5-5 5-5-2.239-5-5 2.239-5 5-5zm0 1.5c-1.933 0-3.5 1.567-3.5 3.5s1.567 3.5 3.5 3.5 3.5-1.567 3.5-3.5-1.567-3.5-3.5-3.5z" transform="translate(-1531 -397) translate(1220 124) translate(0 54) translate(0 124) translate(45 95) translate(266)"/>
      <path stroke="#000" stroke-linecap="round" stroke-linejoin="round" stroke-width="1.5" d="M19 19.7c0-3.866-3.134-7-7-7s-7 3.134-7 7" transform="translate(-1531 -397) translate(1220 124) translate(0 54) translate(0 124) translate(45 95) translate(266)"/>
    </g>
  </g>

</svg>
