<svg xmlns="http://www.w3.org/2000/svg" width="44" height="44" viewBox="0 0 44 44">
    <g fill="none" fill-rule="evenodd" transform="translate(6 6)">
        <circle cx="16" cy="16" r="16" fill="#767676"/>
        <g fill="#FFF">
            <path d="M10.685 14.544l.001-.015 1.002-.08c.488-.038.948-.168 1.376-.407.47-.263.82-.643 1.06-1.118.214-.425.308-.889.349-1.359.04-.464.065-.931.064-1.397-.001-1.566-.019-3.132-.027-4.698-.003-.528-.022-1.054-.125-1.574-.115-.574-.35-1.083-.763-1.5-.364-.367-.812-.585-1.308-.72-.607-.163-1.232-.175-1.85-.18-1.738-.013-3.476.016-5.215.022-.483.001-.962.026-1.434.13-.71.155-1.307.49-1.733 1.099-.353.504-.506 1.077-.553 1.675-.048.617-.056 1.237-.068 1.856-.01.575-.009 1.151 0 1.726.016 1.137.038 2.273.063 3.41.011.49.113.962.312 1.416.253.58.675 1 1.224 1.287.43.226.909.322 1.39.359.508.04 1.019.062 1.528.065 1.569.008 3.138.003 4.707.003M0 10.93V5.069c.01-.042.029-.084.032-.127.013-.193.024-.386.032-.58C.086 3.82.208 3.3.395 2.79.664 2.061 1.12 1.47 1.727.996 2.433.446 3.263.19 4.14.103 4.694.048 5.253.052 5.81.033c.195-.006.391.002.587-.002.048 0 .095-.02.143-.031h2.92c.032.01.064.03.096.031.531.013 1.063.014 1.595.037.359.015.717.052 1.075.093.503.058.98.22 1.427.448.48.246.897.579 1.248.997.314.376.549.79.719 1.244.26.696.343 1.42.349 2.156 0 .063.02.127.031.19v5.64c-.01.02-.03.041-.031.063-.013.235-.015.472-.035.706-.025.284-.038.574-.101.85-.207.906-.593 1.714-1.308 2.346-.428.378-.901.664-1.437.849-.701.242-1.429.319-2.167.319-.064 0-.127.02-.19.031H5.27c-.032-.01-.063-.03-.096-.032-.448-.033-.898-.052-1.344-.099-.472-.049-.921-.193-1.35-.392-.525-.245-.973-.59-1.358-1.028-.286-.326-.507-.686-.67-1.08-.306-.732-.424-1.504-.42-2.296 0-.047-.021-.095-.032-.142" transform="translate(8 8)"/>
            <path d="M10.56 8.001c.02-1.43-1.16-2.587-2.563-2.574-1.46.013-2.566 1.135-2.57 2.576-.004 1.39 1.078 2.481 2.426 2.56 1.546.09 2.753-1.21 2.706-2.562M4 8.007c-.008-2.193 1.777-4.098 4.181-4.004 2.036.08 3.872 1.748 3.818 4.102-.049 2.127-1.742 3.92-4.063 3.895C5.778 11.976 4.012 10.253 4 8.007M12.003 3.334c-.042-.336.312-.686.69-.667.318.016.65.302.64.687-.009.326-.302.655-.684.646-.325-.008-.677-.296-.646-.666" transform="translate(8 8)"/>
        </g>
    </g>
</svg>
