<svg xmlns="http://www.w3.org/2000/svg" width="44" height="44" viewBox="0 0 44 44">
    <g fill="none" fill-rule="evenodd" transform="translate(6 6)">
        <circle cx="16" cy="16" r="16" fill="#767676"/>
        <g>
            <path fill="#FFF" d="M15.667 1.718C15.483 1.043 14.94.51 14.25.328 13.004 0 8 0 8 0S2.998 0 1.749.328C1.06.508.519 1.04.334 1.718 0 2.943 0 5.5 0 5.5s0 2.557.334 3.783c.183.674.725 1.207 1.415 1.39C2.999 11 8 11 8 11s5.004 0 6.251-.327c.688-.18 1.23-.713 1.416-1.39C16 8.057 16 5.5 16 5.5s0-2.557-.333-3.782" transform="translate(8 11)"/>
            <path fill="#767676" d="M6.4 7.7L10.667 5.5 6.4 3.3z" transform="translate(8 11)"/>
        </g>
    </g>
</svg>
