<svg xmlns="http://www.w3.org/2000/svg" width="44" height="44" viewBox="0 0 44 44">
    <g fill="none" fill-rule="evenodd" transform="translate(6 6)">
        <circle cx="16" cy="16" r="16" fill="#767676"/>
        <path fill="#FFF" d="M13.403 22c5.283 0 8.172-4.617 8.172-8.621 0-.131 0-.262-.008-.392.562-.429 1.047-.96 1.433-1.568-.524.245-1.08.406-1.65.477.6-.38 1.049-.975 1.263-1.676-.564.353-1.18.601-1.824.735-1.088-1.22-2.907-1.279-4.064-.132-.746.74-1.062 1.843-.83 2.896-2.31-.123-4.462-1.273-5.92-3.166-.763 1.384-.374 3.155.889 4.045-.457-.015-.905-.145-1.304-.38v.039c0 1.442.964 2.684 2.304 2.97-.422.122-.866.14-1.297.052.377 1.234 1.455 2.08 2.684 2.104-1.017.843-2.274 1.301-3.567 1.3-.229 0-.457-.015-.684-.044 1.314.89 2.842 1.36 4.403 1.359"/>
    </g>
</svg>
