<svg xmlns="http://www.w3.org/2000/svg" width="44" height="44" viewBox="0 0 44 44">
    <g fill="none" fill-rule="evenodd">
        <path fill-rule="nonzero" d="M0 0H44V44H0z"/>
        <g fill="#00256C">
            <path fill-rule="nonzero" d="M.881 1.762h2.9c.426 0 .796.285.91.711l3.467 13.815c.313 1.223 1.393 2.075 2.644 2.075h11.342c1.25 0 2.36-.852 2.644-2.075l2.132-8.755c.199-.796.028-1.649-.512-2.303-.512-.653-1.308-1.051-2.132-1.051H6.964l-.54-2.104C6.112.853 5.031 0 3.781 0H.88m24.305 7.135l-2.132 8.755c-.114.427-.484.71-.91.71H10.802c-.426 0-.796-.283-.91-.71L7.42 5.97h16.857c.284 0 .569.142.74.369.17.227.255.512.17.796z" transform="translate(7 10)"/>
            <path d="M11.25 24.75c1.243 0 2.25-1.007 2.25-2.25s-1.007-2.25-2.25-2.25S9 21.257 9 22.5s1.007 2.25 2.25 2.25zM21.375 24.75c1.243 0 2.25-1.007 2.25-2.25s-1.007-2.25-2.25-2.25-2.25 1.007-2.25 2.25 1.007 2.25 2.25 2.25z" transform="translate(7 10)"/>
        </g>
    </g>
</svg>
