<svg width="106" height="106" viewBox="0 0 106 106" fill="none" xmlns="http://www.w3.org/2000/svg">
<path d="M60.5277 102.901L54.194 103.433L54.112 102.456L56.7209 102.237L56.5933 100.717C56.4153 98.5961 54.9987 97.6191 53.4615 97.3828L53.3784 96.3923C54.9109 96.5728 56.2693 97.358 56.9396 98.4818C57.4121 97.248 58.6066 96.08 60.1306 95.6571L60.2137 96.6476C58.6944 97.1264 57.5291 98.4745 57.7093 100.623L57.8369 102.144L60.4458 101.925L60.5277 102.901ZM49.7515 95.1934L50.8675 95.0997L51.2621 99.8012L54.0662 99.5659L54.147 100.529L51.3428 100.764L51.5969 103.791L50.4808 103.885L49.7515 95.1934ZM49.1912 91.3628L58.7058 90.5644L59.0488 94.6521L57.9187 94.7469L57.6565 91.6219L49.272 92.3254L49.1912 91.3628Z" fill="black"/>
<path d="M35.0123 99.29L33.2947 98.3457L32.3302 100.1L31.3733 99.5739L32.3378 97.8196L30.6326 96.882L31.1048 96.0233L32.81 96.9608L34.4895 93.9061C35.8318 91.4648 35.6133 90.0026 34.8415 88.9073L35.3407 87.9994C36.2756 89.0886 36.5659 90.4784 36.3563 91.6733C37.2351 90.8304 38.5629 90.3622 39.9712 90.5614L39.4788 91.4569C38.1515 91.4301 36.7955 91.9787 35.4464 94.4322L33.7669 97.487L35.4844 98.4313L35.0123 99.29ZM33.5252 92.9286L33.0531 93.7873L31.2497 92.7958L28.6393 97.5435L27.6824 97.0174L33.6181 86.2216L34.575 86.7477L31.7218 91.937L33.5252 92.9286ZM31.3357 84.8228L32.2926 85.349L26.2624 96.3165L25.3055 95.7904L31.3357 84.8228Z" fill="black"/>
<path d="M12.6237 79.7138L9.1279 73.0264L6.79537 74.2457L6.27651 73.2531L12.9267 69.7768L14.9178 73.5858L17.8087 72.0746L15.4998 67.6577L16.3683 67.2037L21.5309 77.0798L20.6624 77.5337L18.334 73.0796L15.4432 74.5908L17.4602 78.4494L10.81 81.9257L10.2911 80.9331L12.6237 79.7138ZM12.5647 71.2299L10.0088 72.5659L13.5046 79.2533L16.0604 77.9173L12.5647 71.2299Z" fill="black"/>
<path d="M4.72565 49.4269L3.06878 49.2527L2.57109 53.9866L1.59646 53.8842L2.21125 48.0364L4.73136 48.3013C9.45135 48.7976 12.3909 50.9648 13.0465 55.1724L12.0023 55.0626C11.3687 51.716 8.81909 49.8573 4.72565 49.4269ZM2.41297 43.9752L14.8604 45.2838L14.7418 46.4116L2.29441 45.103L2.41297 43.9752Z" fill="black"/>
<path d="M9.32579 25.2528L13.3773 20.3555L14.1324 20.9801L12.4636 22.9973L13.6394 23.97C15.279 25.3265 16.9682 24.9978 18.2125 24.0648L18.9784 24.6985C17.7772 25.6671 16.2659 26.0884 14.9939 25.781C15.5449 26.9819 15.5437 28.6525 14.7796 30.0373L14.0137 29.4037C14.7346 27.9832 14.5867 26.2073 12.9255 24.833L11.7497 23.8603L10.0809 25.8775L9.32579 25.2528ZM22.3725 22.9458L21.6586 23.8088L18.0234 20.8013L16.2296 22.9695L15.4853 22.3538L17.2791 20.1856L14.9383 18.249L15.6522 17.3861L22.3725 22.9458ZM25.5015 25.2255L19.4152 32.5822L16.2546 29.9675L16.9775 29.0937L19.3938 31.0927L24.7572 24.6097L25.5015 25.2255Z" fill="black"/>
<path d="M32.209 7.04479L34.0854 6.4783L33.5067 4.56174L34.5521 4.24612L35.1307 6.16268L36.9937 5.60023L37.2769 6.53841L35.414 7.10085L36.4215 10.4381C37.2268 13.1052 38.4244 13.972 39.747 14.1869L40.0464 15.1787C38.6141 15.0847 37.418 14.3197 36.7109 13.334C36.6983 14.5517 36.1038 15.8279 34.9762 16.6948L34.6808 15.7165C35.6286 14.7869 36.1854 13.4342 35.3761 10.7537L34.3686 7.41647L32.4923 7.98296L32.209 7.04479ZM37.7947 10.433L37.5114 9.49481L39.4816 8.9L37.9156 3.71323L38.961 3.39761L42.5219 15.1918L41.4765 15.5074L39.7648 9.83817L37.7947 10.433ZM45.1181 14.5396L44.0728 14.8552L40.4553 2.87336L41.5007 2.55774L45.1181 14.5396Z" fill="black"/>
<path d="M61.8602 4.74412L69.0841 6.92511L69.8448 4.40545L70.917 4.72916L68.7482 11.9129L64.6336 10.6707L63.6908 13.7934L68.4621 15.2339L68.1788 16.1721L57.5105 12.9512L57.7937 12.013L62.6052 13.4657L63.548 10.3429L59.3798 9.08448L61.5487 1.90074L62.6209 2.22445L61.8602 4.74412ZM67.9633 10.6376L68.7968 7.87669L61.5729 5.6957L60.7393 8.45661L67.9633 10.6376Z" fill="black"/>
<path d="M89.026 20.2906L90.3096 19.2287L87.2754 15.5611L88.0305 14.9364L91.7787 19.4669L89.8262 21.0822C86.1694 24.1075 82.5643 24.6915 79.0993 22.2162L79.9083 21.5469C82.7427 23.4356 85.8546 22.9143 89.026 20.2906ZM94.5392 22.4524L84.8956 30.4306L84.1728 29.5568L93.8164 21.5786L94.5392 22.4524Z" fill="black"/>
<path d="M103.08 40.4905L103.744 46.8117L102.77 46.9142L102.496 44.3105L100.978 44.4701C98.8621 44.6925 97.9152 46.1294 97.7113 47.6712L96.7227 47.7751C96.8709 46.2392 97.6274 44.8646 98.7369 44.1708C97.4934 43.7243 96.3006 42.5547 95.8457 41.0399L96.8343 40.936C97.3448 42.4449 98.7172 43.5816 100.861 43.3562L102.379 43.1966L102.105 40.593L103.08 40.4905ZM95.6003 51.4265L95.4832 50.3126L100.175 49.8193L99.8812 47.0208L100.842 46.9198L101.136 49.7183L104.157 49.4007L104.275 50.5146L95.6003 51.4265ZM91.7824 52.0672L90.7841 42.5715L94.8636 42.1426L94.9822 43.2704L91.8634 43.5983L92.7431 51.9662L91.7824 52.0672Z" fill="black"/>
<path d="M100.08 69.5797L99.1718 71.3167L100.946 72.2441L100.44 73.2119L98.6659 72.2844L97.7644 74.009L96.8959 73.555L97.7974 71.8304L94.7081 70.2155C92.2391 68.9248 90.7818 69.1741 89.7029 69.9687L88.7848 69.4888C89.8541 68.5312 91.2375 68.2117 92.4365 68.3961C91.5753 67.5352 91.0793 66.2175 91.2488 64.8054L92.1545 65.2788C92.1556 66.6064 92.7325 67.9506 95.214 69.2477L98.3033 70.8627L99.2113 69.1257L100.08 69.5797ZM93.751 71.2002L94.6195 71.6542L93.6661 73.478L98.4677 75.988L97.9618 76.9557L87.0435 71.2483L87.5494 70.2806L92.7976 73.024L93.751 71.2002ZM85.6931 73.5597L86.199 72.5919L97.2909 78.3901L96.7851 79.3579L85.6931 73.5597Z" fill="black"/>
<path d="M80.9786 92.375L74.3662 96.0106L75.6343 98.317L74.6528 98.8566L71.0374 92.281L74.8037 90.2102L73.2321 87.3518L68.8647 89.753L68.3925 88.8943L78.1578 83.5251L78.63 84.3839L74.2258 86.8054L75.7974 89.6638L79.6127 87.5661L83.2281 94.1417L82.2467 94.6813L80.9786 92.375ZM72.4978 92.6124L73.8873 95.1396L80.4997 91.5039L79.1102 88.9767L72.4978 92.6124Z" fill="black"/>
</svg>
